<svg xmlns="http://www.w3.org/2000/svg" xmlns:xlink="http://www.w3.org/1999/xlink" width="500" zoomAndPan="magnify" viewBox="0 0 375 374.999991" height="500" preserveAspectRatio="xMidYMid meet" version="1.0"><defs><g/><clipPath id="id1"><path d="M 70 50 L 324.425781 50 L 324.425781 206.660156 L 70 206.660156 Z M 70 50 " clip-rule="nonzero"/></clipPath><clipPath id="id2"><path d="M 67 192 L 138 192 L 138 206.660156 L 67 206.660156 Z M 67 192 " clip-rule="nonzero"/></clipPath><clipPath id="id3"><path d="M 40.179688 107 L 63 107 L 63 122 L 40.179688 122 Z M 40.179688 107 " clip-rule="nonzero"/></clipPath></defs><path fill="#545454" d="M 223.863281 85.582031 L 218.394531 118.578125 C 220.230469 118.046875 222.082031 117.234375 223.898438 116.605469 C 228.730469 114.929688 234.953125 112.339844 239.96875 110.453125 C 243.519531 109.117188 247.199219 107.695312 250.707031 106.324219 C 252.152344 105.757812 260.867188 102.527344 261.425781 102.152344 C 260.894531 100.921875 255.984375 96.039062 254.839844 95.191406 C 254.214844 94.730469 253.644531 94.1875 252.957031 93.722656 C 252.269531 93.253906 251.660156 92.808594 250.902344 92.292969 C 246.964844 89.59375 241.28125 87.28125 236.414062 86.292969 C 232.988281 85.597656 227.390625 84.992188 223.863281 85.582031 Z M 189.433594 109.246094 C 189.960938 109.917969 195.84375 114.707031 197.050781 115.804688 C 200.113281 118.597656 204.746094 122.15625 207.914062 125.046875 C 209.65625 126.632812 212.269531 128.660156 214.160156 130.308594 C 214.25 130.167969 214.1875 130.328125 214.277344 130.03125 L 221.570312 85.828125 C 211.679688 87.226562 204.574219 91.457031 198.261719 97.210938 C 197.023438 98.335938 196.140625 99.480469 194.914062 100.832031 C 194.417969 101.375 193.800781 102.160156 193.382812 102.785156 C 192.167969 104.605469 191.855469 104.917969 190.648438 107.019531 C 190.257812 107.6875 189.847656 108.640625 189.4375 109.253906 Z M 231.996094 115.863281 C 232.320312 116.105469 232.605469 116.417969 232.96875 116.699219 C 233.363281 117.003906 233.640625 117.246094 234.085938 117.589844 C 234.496094 117.902344 234.800781 118.074219 235.246094 118.445312 L 239.671875 121.933594 C 240.066406 122.234375 240.386719 122.546875 240.765625 122.839844 C 241.574219 123.457031 242.113281 123.929688 242.933594 124.558594 L 260.609375 138.496094 C 261.367188 139.046875 262.140625 139.6875 262.882812 140.25 L 267.246094 143.691406 C 268.375 141.457031 269.472656 136.6875 269.84375 133.816406 C 271.007812 124.792969 269.460938 115.867188 265.230469 107.980469 C 264.453125 106.53125 263.632812 105.34375 262.882812 104.03125 Z M 233.46875 170.257812 C 236.441406 170.238281 242.300781 168.191406 244.734375 167.132812 C 248.316406 165.574219 253.0625 162.628906 255.695312 160.144531 C 256.394531 159.480469 256.945312 159.035156 257.574219 158.410156 C 258.230469 157.761719 258.644531 157.234375 259.339844 156.558594 C 259.894531 156.015625 260.402344 155.253906 260.910156 154.636719 C 262.347656 152.875 265.792969 147.917969 266.355469 145.730469 L 241.207031 125.984375 C 240.769531 126.871094 240.390625 130.296875 240.171875 131.554688 L 235.390625 159.230469 C 234.757812 162.84375 234.230469 166.738281 233.476562 170.257812 Z M 236.710938 138.425781 L 194.003906 154.070312 C 195.308594 155.828125 197.203125 157.976562 198.84375 159.371094 C 199.398438 159.835938 200.003906 160.539062 200.609375 160.949219 C 201.78125 161.757812 202.933594 162.835938 204.546875 163.847656 C 209.152344 166.742188 213.222656 168.511719 218.847656 169.773438 C 221.402344 170.34375 228.703125 171.183594 231.222656 170.488281 L 236.71875 138.425781 Z M 188.5 111.449219 C 187.933594 112.382812 187.125 115.011719 186.773438 116.273438 C 183.679688 127.066406 184.988281 138.378906 190.183594 148.1875 L 192.558594 152.183594 C 194.132812 151.765625 198.421875 150.046875 200.378906 149.367188 C 202.96875 148.460938 205.464844 147.507812 208.03125 146.574219 C 210.582031 145.65625 213.136719 144.726562 215.679688 143.773438 C 216.375 143.515625 222.777344 141.386719 223.292969 140.863281 Z M 188.5 111.449219 " fill-opacity="1" fill-rule="evenodd"/><path fill="#545454" d="M 88.753906 78.941406 L 58.5625 78.941406 C 54.667969 78.941406 51.476562 82.136719 51.476562 86.042969 C 51.476562 89.949219 54.667969 93.144531 58.5625 93.144531 L 88.753906 93.144531 C 92.652344 93.144531 95.839844 89.949219 95.839844 86.042969 C 95.839844 82.136719 92.652344 78.941406 88.753906 78.941406 Z M 88.753906 78.941406 " fill-opacity="1" fill-rule="evenodd"/><g clip-path="url(#id1)"><path fill="#ed5b2d" d="M 230.523438 179.546875 C 229.570312 179.601562 228.613281 179.625 227.648438 179.625 C 227.558594 179.625 227.460938 179.625 227.371094 179.625 C 227.277344 179.625 227.1875 179.625 227.089844 179.625 C 198.828125 179.625 175.910156 156.648438 175.910156 128.316406 C 175.910156 99.988281 198.828125 77.011719 227.089844 77.011719 C 227.183594 77.011719 227.273438 77.011719 227.371094 77.011719 C 227.460938 77.011719 227.550781 77.011719 227.648438 77.011719 C 228.613281 77.011719 229.570312 77.039062 230.523438 77.089844 C 257.449219 78.585938 278.828125 100.949219 278.828125 128.316406 C 278.828125 155.679688 257.449219 178.050781 230.523438 179.546875 Z M 270.335938 50.179688 L 228.683594 50.179688 C 228.246094 50.15625 227.8125 50.152344 227.375 50.152344 C 226.9375 50.144531 226.507812 50.152344 226.070312 50.179688 L 152.808594 50.179688 C 148.910156 50.179688 145.722656 53.375 145.722656 57.28125 C 145.722656 61.1875 148.910156 64.382812 152.808594 64.382812 L 181.847656 64.382812 C 181.910156 64.382812 181.964844 64.390625 182.027344 64.390625 L 182.035156 64.390625 C 182.152344 64.394531 182.269531 64.402344 182.390625 64.417969 L 182.394531 64.417969 C 182.453125 64.421875 182.515625 64.429688 182.570312 64.4375 C 182.742188 64.457031 182.917969 64.488281 183.089844 64.519531 L 183.097656 64.519531 L 183.265625 64.554688 L 183.429688 64.597656 L 183.597656 64.648438 L 183.757812 64.695312 L 183.773438 64.695312 L 183.929688 64.742188 L 183.945312 64.742188 L 184.050781 64.777344 C 184.179688 64.828125 184.3125 64.875 184.445312 64.933594 C 186.980469 66.019531 188.765625 68.546875 188.765625 71.46875 C 188.765625 75.375 185.578125 78.570312 181.679688 78.570312 L 117.613281 78.570312 C 113.71875 78.570312 110.53125 81.765625 110.53125 85.671875 C 110.53125 89.578125 113.71875 92.773438 117.613281 92.773438 L 145.183594 92.773438 L 145.3125 92.78125 L 145.371094 92.78125 L 145.496094 92.789062 L 145.535156 92.789062 L 145.695312 92.800781 L 145.710938 92.800781 L 145.863281 92.816406 L 145.910156 92.824219 L 146.027344 92.835938 L 146.078125 92.84375 L 146.222656 92.867188 L 146.238281 92.867188 L 146.398438 92.894531 L 146.4375 92.898438 L 146.558594 92.929688 L 146.605469 92.941406 L 146.730469 92.96875 L 146.757812 92.976562 L 146.910156 93.019531 L 146.945312 93.023438 L 147.0625 93.058594 L 147.113281 93.074219 L 147.21875 93.109375 L 147.265625 93.121094 L 147.410156 93.171875 L 147.425781 93.179688 L 147.558594 93.226562 L 147.597656 93.242188 L 147.710938 93.28125 L 147.75 93.304688 L 147.890625 93.367188 L 147.898438 93.367188 L 148.035156 93.4375 L 148.078125 93.457031 L 148.183594 93.503906 L 148.222656 93.527344 L 148.335938 93.589844 L 148.355469 93.601562 L 148.496094 93.679688 L 148.523438 93.695312 L 148.625 93.757812 L 148.667969 93.777344 L 148.773438 93.839844 L 148.800781 93.859375 L 148.933594 93.945312 L 148.953125 93.957031 L 149.058594 94.035156 L 149.097656 94.0625 L 149.1875 94.132812 L 149.222656 94.160156 L 149.347656 94.257812 L 149.46875 94.355469 L 149.5 94.382812 L 149.59375 94.460938 L 149.628906 94.488281 L 149.730469 94.578125 L 149.746094 94.59375 L 149.855469 94.695312 L 150.113281 94.953125 L 150.21875 95.066406 L 150.238281 95.085938 L 150.320312 95.175781 L 150.355469 95.210938 L 150.433594 95.300781 L 150.453125 95.328125 L 150.550781 95.457031 L 150.558594 95.460938 L 150.648438 95.574219 L 150.675781 95.617188 L 150.738281 95.699219 L 150.765625 95.742188 L 150.847656 95.859375 L 150.855469 95.871094 L 150.945312 96.003906 L 150.96875 96.03125 L 151.03125 96.136719 L 151.050781 96.179688 L 151.113281 96.289062 L 151.128906 96.3125 L 151.203125 96.449219 L 151.28125 96.589844 L 151.300781 96.632812 L 151.355469 96.738281 L 151.441406 96.910156 L 151.445312 96.929688 L 151.503906 97.054688 L 151.523438 97.097656 L 151.566406 97.210938 L 151.578125 97.25 L 151.585938 97.28125 C 151.640625 97.410156 151.683594 97.550781 151.730469 97.691406 C 151.945312 98.371094 152.066406 99.089844 152.066406 99.839844 C 152.066406 103.746094 148.875 106.941406 144.980469 106.941406 L 77.890625 106.941406 C 73.996094 106.941406 70.808594 110.140625 70.808594 114.042969 C 70.808594 117.949219 73.996094 121.148438 77.890625 121.148438 L 130.003906 121.148438 L 130 121.167969 C 130.179688 121.179688 130.351562 121.203125 130.527344 121.222656 C 133.9375 121.730469 136.570312 124.699219 136.570312 128.25 C 136.570312 131.800781 133.9375 134.765625 130.527344 135.273438 C 130.351562 135.300781 130.179688 135.320312 130 135.328125 L 130.003906 135.351562 L 92.4375 135.351562 C 88.539062 135.351562 85.351562 138.546875 85.351562 142.453125 C 85.351562 146.359375 88.539062 149.554688 92.4375 149.554688 L 144.980469 149.554688 C 148.875 149.554688 152.066406 152.75 152.066406 156.65625 C 152.066406 157.40625 151.945312 158.125 151.730469 158.804688 C 151.691406 158.945312 151.640625 159.078125 151.585938 159.21875 L 151.578125 159.238281 L 151.566406 159.28125 L 151.523438 159.382812 L 151.503906 159.433594 L 151.453125 159.550781 L 151.445312 159.570312 L 151.382812 159.710938 L 151.363281 159.753906 L 151.316406 159.859375 L 151.292969 159.90625 L 151.246094 160.003906 L 151.222656 160.046875 L 151.148438 160.179688 L 151.132812 160.207031 L 151.070312 160.308594 L 151.042969 160.351562 L 150.980469 160.449219 L 150.960938 160.484375 L 150.878906 160.617188 L 150.863281 160.636719 L 150.785156 160.75 L 150.753906 160.789062 L 150.691406 160.875 L 150.660156 160.914062 L 150.578125 161.027344 L 150.566406 161.042969 L 150.46875 161.160156 L 150.441406 161.1875 L 150.363281 161.277344 L 150.328125 161.3125 L 150.253906 161.402344 L 150.222656 161.429688 L 150.121094 161.542969 L 150.09375 161.570312 L 150.007812 161.652344 L 149.972656 161.6875 L 149.890625 161.773438 L 149.863281 161.800781 L 149.753906 161.90625 L 149.730469 161.917969 L 149.632812 162.003906 L 149.597656 162.035156 L 149.515625 162.105469 L 149.472656 162.140625 L 149.363281 162.230469 L 149.355469 162.238281 L 149.238281 162.328125 L 149.203125 162.355469 L 149.113281 162.425781 L 149.070312 162.453125 L 148.96875 162.53125 L 148.945312 162.546875 L 148.8125 162.628906 L 148.785156 162.648438 L 148.683594 162.710938 L 148.640625 162.734375 L 148.535156 162.796875 L 148.507812 162.808594 L 148.371094 162.886719 L 148.347656 162.898438 L 148.238281 162.960938 L 148.195312 162.984375 L 148.09375 163.03125 L 148.050781 163.054688 L 147.910156 163.121094 L 147.90625 163.128906 L 147.765625 163.191406 L 147.722656 163.214844 L 147.613281 163.253906 L 147.570312 163.269531 L 147.4375 163.316406 L 147.425781 163.324219 L 147.28125 163.375 L 147.230469 163.386719 L 147.078125 163.4375 L 146.960938 163.472656 L 146.925781 163.476562 L 146.773438 163.519531 L 146.746094 163.527344 L 146.621094 163.554688 L 146.570312 163.570312 L 146.542969 163.574219 C 146.152344 163.660156 145.773438 163.714844 145.398438 163.734375 L 145.355469 163.734375 L 145.265625 163.742188 L 117.65625 163.742188 C 113.757812 163.742188 110.570312 166.9375 110.570312 170.84375 C 110.570312 174.75 113.757812 177.945312 117.65625 177.945312 L 181.722656 177.945312 C 185.621094 177.945312 188.808594 181.140625 188.808594 185.046875 C 188.808594 187.972656 187.023438 190.5 184.488281 191.585938 C 184.355469 191.640625 184.222656 191.695312 184.089844 191.738281 L 184.5 192.148438 L 152.855469 192.148438 C 148.960938 192.148438 145.773438 195.34375 145.773438 199.25 C 145.773438 203.15625 148.960938 206.351562 152.855469 206.351562 L 226.125 206.351562 L 226.089844 206.351562 C 226.535156 206.375 226.980469 206.386719 227.425781 206.378906 C 227.871094 206.386719 228.3125 206.378906 228.757812 206.351562 L 228.722656 206.351562 L 281.511719 206.351562 C 305.140625 206.351562 324.46875 186.976562 324.46875 163.289062 L 324.46875 93.117188 C 324.46875 69.429688 305.140625 50.054688 281.511719 50.054688 L 270.375 50.054688 Z M 270.335938 50.179688 " fill-opacity="1" fill-rule="evenodd"/></g><path fill="#545454" d="M 72.050781 135.382812 L 56.953125 135.382812 C 53.054688 135.382812 49.867188 138.582031 49.867188 142.488281 C 49.867188 146.390625 53.054688 149.589844 56.953125 149.589844 L 72.050781 149.589844 C 75.949219 149.589844 79.136719 146.390625 79.136719 142.488281 C 79.136719 138.582031 75.949219 135.382812 72.050781 135.382812 Z M 72.050781 135.382812 " fill-opacity="1" fill-rule="evenodd"/><g clip-path="url(#id2)"><path fill="#545454" d="M 130.511719 192.09375 L 74.46875 192.09375 C 70.570312 192.09375 67.382812 195.289062 67.382812 199.195312 C 67.382812 203.101562 70.570312 206.296875 74.46875 206.296875 L 130.511719 206.296875 C 134.410156 206.296875 137.597656 203.101562 137.597656 199.195312 C 137.597656 195.289062 134.410156 192.09375 130.511719 192.09375 Z M 130.511719 192.09375 " fill-opacity="1" fill-rule="evenodd"/></g><path fill="#545454" d="M 128.902344 50.082031 L 120.539062 50.082031 C 116.640625 50.082031 113.453125 53.277344 113.453125 57.183594 C 113.453125 61.089844 116.640625 64.285156 120.539062 64.285156 L 128.902344 64.285156 C 132.796875 64.285156 135.984375 61.089844 135.984375 57.183594 C 135.984375 53.277344 132.796875 50.082031 128.902344 50.082031 Z M 128.902344 50.082031 " fill-opacity="1" fill-rule="evenodd"/><path fill="#545454" d="M 89.296875 163.902344 L 80.933594 163.902344 C 77.039062 163.902344 73.851562 167.097656 73.851562 171.003906 C 73.851562 174.910156 77.039062 178.105469 80.933594 178.105469 L 89.296875 178.105469 C 93.195312 178.105469 96.382812 174.910156 96.382812 171.003906 C 96.382812 167.097656 93.195312 163.902344 89.296875 163.902344 Z M 89.296875 163.902344 " fill-opacity="1" fill-rule="evenodd"/><g clip-path="url(#id3)"><path fill="#545454" d="M 55.625 107.0625 L 47.261719 107.0625 C 43.367188 107.0625 40.179688 110.257812 40.179688 114.164062 C 40.179688 118.070312 43.367188 121.265625 47.261719 121.265625 L 55.625 121.265625 C 59.519531 121.265625 62.710938 118.070312 62.710938 114.164062 C 62.710938 110.257812 59.519531 107.0625 55.625 107.0625 Z M 55.625 107.0625 " fill-opacity="1" fill-rule="evenodd"/></g><g fill="#545454" fill-opacity="1"><g transform="translate(36.984377, 276.76586)"><g><path d="M 4.40625 -56.5 L 30.359375 -56.5 C 38.984375 -56.5 43.296875 -52.859375 43.296875 -45.578125 L 43.296875 -10.90625 C 43.296875 -3.632812 38.984375 0 30.359375 0 L 4.40625 0 Z M 27.890625 -12.0625 L 27.890625 -44.4375 C 27.890625 -45.726562 27.160156 -46.375 25.703125 -46.375 L 19.796875 -46.375 L 19.796875 -10.125 L 25.703125 -10.125 C 27.160156 -10.125 27.890625 -10.769531 27.890625 -12.0625 Z M 27.890625 -12.0625 "/></g></g></g><g fill="#545454" fill-opacity="1"><g transform="translate(83.534328, 276.76586)"><g><path d="M 3.25 -48.3125 L 3.25 -58.875 L 18.75 -58.875 L 18.75 -48.3125 Z M 18.484375 0 L 3.515625 0 L 3.515625 -43.90625 L 18.484375 -43.90625 Z M 18.484375 0 "/></g></g></g><g fill="#545454" fill-opacity="1"><g transform="translate(105.533362, 276.76586)"><g><path d="M 22.4375 -11.609375 L 22.4375 -15.140625 C 22.4375 -16.429688 21.703125 -17.078125 20.234375 -17.078125 L 14.875 -17.078125 C 6.425781 -17.078125 2.203125 -20.679688 2.203125 -27.890625 L 2.203125 -33 C 2.203125 -40.269531 6.515625 -43.90625 15.140625 -43.90625 L 23.3125 -43.90625 C 31.9375 -43.90625 36.25 -40.269531 36.25 -33 L 36.25 -29.296875 L 22 -29.296875 L 22 -32.296875 C 22 -33.585938 21.265625 -34.234375 19.796875 -34.234375 L 18.921875 -34.234375 C 17.453125 -34.234375 16.71875 -33.585938 16.71875 -32.296875 L 16.71875 -28.421875 C 16.71875 -27.128906 17.453125 -26.484375 18.921875 -26.484375 L 24.28125 -26.484375 C 28.800781 -26.484375 32.039062 -25.554688 34 -23.703125 C 35.96875 -21.859375 36.953125 -19.207031 36.953125 -15.75 L 36.953125 -10.90625 C 36.953125 -3.632812 32.644531 0 24.03125 0 L 15.40625 0 C 6.78125 0 2.46875 -3.632812 2.46875 -10.90625 L 2.46875 -14.515625 L 16.984375 -14.515625 L 16.984375 -11.609375 C 16.984375 -10.328125 17.71875 -9.6875 19.1875 -9.6875 L 20.234375 -9.6875 C 21.703125 -9.6875 22.4375 -10.328125 22.4375 -11.609375 Z M 22.4375 -11.609375 "/></g></g></g><g fill="#545454" fill-opacity="1"><g transform="translate(144.691631, 276.76586)"><g><path d="M 37.921875 -26.921875 L 23.5 -26.921875 L 23.5 -30.96875 C 23.5 -32.257812 22.765625 -32.90625 21.296875 -32.90625 L 19.796875 -32.90625 C 18.328125 -32.90625 17.59375 -32.257812 17.59375 -30.96875 L 17.59375 -12.9375 C 17.59375 -11.644531 18.328125 -11 19.796875 -11 L 21.296875 -11 C 22.765625 -11 23.5 -11.644531 23.5 -12.9375 L 23.5 -16.984375 L 37.921875 -16.984375 L 37.921875 -10.90625 C 37.921875 -3.632812 33.609375 0 24.984375 0 L 15.578125 0 C 6.953125 0 2.640625 -3.632812 2.640625 -10.90625 L 2.640625 -33 C 2.640625 -40.269531 6.953125 -43.90625 15.578125 -43.90625 L 24.984375 -43.90625 C 33.609375 -43.90625 37.921875 -40.269531 37.921875 -33 Z M 37.921875 -26.921875 "/></g></g></g><g fill="#545454" fill-opacity="1"><g transform="translate(184.377885, 276.76586)"><g><path d="M 15.578125 -43.90625 L 26.75 -43.90625 C 31.207031 -43.90625 34.40625 -42.96875 36.34375 -41.09375 C 38.28125 -39.21875 39.25 -36.519531 39.25 -33 L 39.25 -10.90625 C 39.25 -7.382812 38.28125 -4.6875 36.34375 -2.8125 C 34.40625 -0.9375 31.207031 0 26.75 0 L 15.578125 0 C 11.117188 0 7.921875 -0.9375 5.984375 -2.8125 C 4.046875 -4.6875 3.078125 -7.382812 3.078125 -10.90625 L 3.078125 -33 C 3.078125 -36.519531 4.046875 -39.21875 5.984375 -41.09375 C 7.921875 -42.96875 11.117188 -43.90625 15.578125 -43.90625 Z M 24.546875 -12.3125 L 24.546875 -31.59375 C 24.546875 -32.882812 23.816406 -33.53125 22.359375 -33.53125 L 19.96875 -33.53125 C 18.507812 -33.53125 17.78125 -32.882812 17.78125 -31.59375 L 17.78125 -12.3125 C 17.78125 -11.03125 18.507812 -10.390625 19.96875 -10.390625 L 22.359375 -10.390625 C 23.816406 -10.390625 24.546875 -11.03125 24.546875 -12.3125 Z M 24.546875 -12.3125 "/></g></g></g><g fill="#545454" fill-opacity="1"><g transform="translate(226.704016, 276.76586)"><g><path d="M 14.875 -43.90625 L 20.234375 -15.75 L 25.515625 -43.90625 L 40.390625 -43.90625 L 29.125 0 L 11.265625 0 L 0 -43.90625 Z M 14.875 -43.90625 "/></g></g></g><g fill="#545454" fill-opacity="1"><g transform="translate(267.094242, 276.76586)"><g><path d="M 15.578125 -43.90625 L 26.3125 -43.90625 C 34.9375 -43.90625 39.25 -40.269531 39.25 -33 L 39.25 -18.046875 L 16.8125 -18.046875 L 16.8125 -12.234375 C 16.8125 -10.941406 17.546875 -10.296875 19.015625 -10.296875 L 22.875 -10.296875 C 24.34375 -10.296875 25.078125 -11 25.078125 -12.40625 L 25.078125 -14.875 L 39.25 -14.875 L 39.25 -10.90625 C 39.25 -3.632812 34.9375 0 26.3125 0 L 15.578125 0 C 6.953125 0 2.640625 -3.632812 2.640625 -10.90625 L 2.640625 -33 C 2.640625 -40.269531 6.953125 -43.90625 15.578125 -43.90625 Z M 16.8125 -26.140625 L 25.078125 -26.140625 L 25.078125 -31.6875 C 25.078125 -32.96875 24.34375 -33.609375 22.875 -33.609375 L 19.015625 -33.609375 C 17.546875 -33.609375 16.8125 -32.96875 16.8125 -31.6875 Z M 16.8125 -26.140625 "/></g></g></g><g fill="#545454" fill-opacity="1"><g transform="translate(308.540413, 276.76586)"><g><path d="M 27.71875 -44.359375 L 29.046875 -44.359375 L 29.046875 -31.328125 L 24.03125 -31.328125 C 20.332031 -31.328125 18.484375 -29.332031 18.484375 -25.34375 L 18.484375 0 L 3.515625 0 L 3.515625 -43.90625 L 18.21875 -43.90625 L 18.21875 -37.140625 C 18.6875 -39.367188 19.738281 -41.128906 21.375 -42.421875 C 23.019531 -43.710938 25.132812 -44.359375 27.71875 -44.359375 Z M 27.71875 -44.359375 "/></g></g></g><g fill="#ed5b2d" fill-opacity="1"><g transform="translate(48.815216, 322.199979)"><g><path d="M 17.9375 -26.96875 L 17.9375 -21.71875 L 12.71875 -21.71875 L 12.71875 0 L 5.375 0 L 5.375 -21.71875 L 0.203125 -21.71875 L 0.203125 -26.96875 Z M 17.9375 -26.96875 "/></g></g></g><g fill="#ed5b2d" fill-opacity="1"><g transform="translate(69.059215, 322.199979)"><g><path d="M 9.03125 -5.25 L 18.234375 -5.25 L 18.234375 0 L 1.6875 0 L 1.6875 -26.96875 L 17.84375 -26.96875 L 17.84375 -21.71875 L 9.03125 -21.71875 L 9.03125 -16.21875 L 16.625 -16.21875 L 16.625 -10.96875 L 9.03125 -10.96875 Z M 9.03125 -5.25 "/></g></g></g><g fill="#ed5b2d" fill-opacity="1"><g transform="translate(90.017211, 322.199979)"><g><path d="M 12.015625 -6.171875 L 12.015625 -10 C 12.015625 -10.613281 11.664062 -10.921875 10.96875 -10.921875 L 6.9375 -10.921875 C 4.863281 -10.921875 3.398438 -11.375 2.546875 -12.28125 C 1.691406 -13.195312 1.265625 -14.507812 1.265625 -16.21875 L 1.265625 -21.75 C 1.265625 -25.226562 3.304688 -26.96875 7.390625 -26.96875 L 13.140625 -26.96875 C 17.234375 -26.96875 19.28125 -25.226562 19.28125 -21.75 L 19.28125 -18.515625 L 11.921875 -18.515625 L 11.921875 -20.796875 C 11.921875 -21.410156 11.570312 -21.71875 10.875 -21.71875 L 9.65625 -21.71875 C 8.957031 -21.71875 8.609375 -21.410156 8.609375 -20.796875 L 8.609375 -16.796875 C 8.609375 -16.179688 8.957031 -15.875 9.65625 -15.875 L 13.609375 -15.875 C 15.679688 -15.875 17.15625 -15.4375 18.03125 -14.5625 C 18.914062 -13.695312 19.359375 -12.425781 19.359375 -10.75 L 19.359375 -5.203125 C 19.359375 -1.734375 17.316406 0 13.234375 0 L 7.515625 0 C 3.398438 0 1.34375 -1.734375 1.34375 -5.203125 L 1.34375 -8.4375 L 8.6875 -8.4375 L 8.6875 -6.171875 C 8.6875 -5.554688 9.039062 -5.25 9.75 -5.25 L 10.96875 -5.25 C 11.664062 -5.25 12.015625 -5.554688 12.015625 -6.171875 Z M 12.015625 -6.171875 "/></g></g></g><g fill="#ed5b2d" fill-opacity="1"><g transform="translate(112.739208, 322.199979)"><g><path d="M 17.9375 -26.96875 L 17.9375 -21.71875 L 12.71875 -21.71875 L 12.71875 0 L 5.375 0 L 5.375 -21.71875 L 0.203125 -21.71875 L 0.203125 -26.96875 Z M 17.9375 -26.96875 "/></g></g></g><g fill="#ed5b2d" fill-opacity="1"><g transform="translate(132.98321, 322.199979)"><g/></g></g><g fill="#ed5b2d" fill-opacity="1"><g transform="translate(143.483209, 322.199979)"><g><path d="M 19.734375 -16.890625 L 12.390625 -16.890625 L 12.390625 -21.203125 C 12.390625 -21.828125 12.039062 -22.140625 11.34375 -22.140625 L 9.875 -22.140625 C 9.164062 -22.140625 8.8125 -21.828125 8.8125 -21.203125 L 8.8125 -5.75 C 8.8125 -5.132812 9.164062 -4.828125 9.875 -4.828125 L 11.34375 -4.828125 C 12.039062 -4.828125 12.390625 -5.132812 12.390625 -5.75 L 12.390625 -9.90625 L 19.734375 -9.90625 L 19.734375 -5.203125 C 19.734375 -1.734375 17.675781 0 13.5625 0 L 7.640625 0 C 3.523438 0 1.46875 -1.734375 1.46875 -5.203125 L 1.46875 -21.75 C 1.46875 -25.226562 3.523438 -26.96875 7.640625 -26.96875 L 13.5625 -26.96875 C 17.675781 -26.96875 19.734375 -25.226562 19.734375 -21.75 Z M 19.734375 -16.890625 "/></g></g></g><g fill="#ed5b2d" fill-opacity="1"><g transform="translate(166.373211, 322.199979)"><g><path d="M 7.734375 -26.96875 L 13.9375 -26.96875 C 18.0625 -26.96875 20.125 -25.226562 20.125 -21.75 L 20.125 -5.203125 C 20.125 -1.734375 18.0625 0 13.9375 0 L 7.734375 0 C 3.609375 0 1.546875 -1.734375 1.546875 -5.203125 L 1.546875 -21.75 C 1.546875 -25.226562 3.609375 -26.96875 7.734375 -26.96875 Z M 12.765625 -6.171875 L 12.765625 -20.796875 C 12.765625 -21.410156 12.414062 -21.71875 11.71875 -21.71875 L 9.953125 -21.71875 C 9.253906 -21.71875 8.90625 -21.410156 8.90625 -20.796875 L 8.90625 -6.171875 C 8.90625 -5.554688 9.253906 -5.25 9.953125 -5.25 L 11.71875 -5.25 C 12.414062 -5.25 12.765625 -5.554688 12.765625 -6.171875 Z M 12.765625 -6.171875 "/></g></g></g><g fill="#ed5b2d" fill-opacity="1"><g transform="translate(190.145208, 322.199979)"><g><path d="M 14.453125 -26.96875 L 22.09375 -26.96875 L 15.453125 0 L 6.9375 0 L 0.296875 -26.96875 L 7.9375 -26.96875 L 11.171875 -8.953125 Z M 14.453125 -26.96875 "/></g></g></g><g fill="#ed5b2d" fill-opacity="1"><g transform="translate(214.631203, 322.199979)"><g><path d="M 9.03125 -5.25 L 18.234375 -5.25 L 18.234375 0 L 1.6875 0 L 1.6875 -26.96875 L 17.84375 -26.96875 L 17.84375 -21.71875 L 9.03125 -21.71875 L 9.03125 -16.21875 L 16.625 -16.21875 L 16.625 -10.96875 L 9.03125 -10.96875 Z M 9.03125 -5.25 "/></g></g></g><g fill="#ed5b2d" fill-opacity="1"><g transform="translate(235.589202, 322.199979)"><g><path d="M 9.03125 -9.578125 L 9.03125 0 L 1.6875 0 L 1.6875 -26.96875 L 14.15625 -26.96875 C 18.269531 -26.96875 20.328125 -25.226562 20.328125 -21.75 L 20.328125 -14.78125 C 20.328125 -12.125 19.125 -10.488281 16.71875 -9.875 L 21.671875 0 L 13.78125 0 L 9.484375 -9.578125 Z M 11.921875 -21.71875 L 9.03125 -21.71875 L 9.03125 -14.578125 L 11.921875 -14.578125 C 12.628906 -14.578125 12.984375 -14.882812 12.984375 -15.5 L 12.984375 -20.796875 C 12.984375 -21.410156 12.628906 -21.71875 11.921875 -21.71875 Z M 11.921875 -21.71875 "/></g></g></g><g fill="#ed5b2d" fill-opacity="1"><g transform="translate(259.2772, 322.199979)"><g><path d="M 15.40625 0 L 14.578125 -4.03125 L 8.109375 -4.03125 L 7.21875 0 L 0 0 L 6.9375 -26.96875 L 15.875 -26.96875 L 22.8125 0 Z M 9.234375 -9.234375 L 13.4375 -9.234375 L 11.375 -18.9375 Z M 9.234375 -9.234375 "/></g></g></g><g fill="#ed5b2d" fill-opacity="1"><g transform="translate(284.183181, 322.199979)"><g><path d="M 19.78125 -17.71875 L 12.4375 -17.71875 L 12.4375 -21.203125 C 12.4375 -21.828125 12.082031 -22.140625 11.375 -22.140625 L 9.875 -22.140625 C 9.164062 -22.140625 8.8125 -21.828125 8.8125 -21.203125 L 8.8125 -5.75 C 8.8125 -5.132812 9.164062 -4.828125 9.875 -4.828125 L 11.375 -4.828125 C 12.082031 -4.828125 12.4375 -5.132812 12.4375 -5.75 L 12.4375 -10.25 L 10.328125 -10.25 L 10.328125 -14.90625 L 19.78125 -14.90625 L 19.78125 -5.203125 C 19.78125 -1.734375 17.722656 0 13.609375 0 L 7.640625 0 C 3.523438 0 1.46875 -1.734375 1.46875 -5.203125 L 1.46875 -21.75 C 1.46875 -25.226562 3.523438 -26.96875 7.640625 -26.96875 L 13.609375 -26.96875 C 17.722656 -26.96875 19.78125 -25.226562 19.78125 -21.75 Z M 19.78125 -17.71875 "/></g></g></g><g fill="#ed5b2d" fill-opacity="1"><g transform="translate(307.325171, 322.199979)"><g><path d="M 9.03125 -5.25 L 18.234375 -5.25 L 18.234375 0 L 1.6875 0 L 1.6875 -26.96875 L 17.84375 -26.96875 L 17.84375 -21.71875 L 9.03125 -21.71875 L 9.03125 -16.21875 L 16.625 -16.21875 L 16.625 -10.96875 L 9.03125 -10.96875 Z M 9.03125 -5.25 "/></g></g></g></svg>