<svg xmlns="http://www.w3.org/2000/svg" xmlns:xlink="http://www.w3.org/1999/xlink" width="500" zoomAndPan="magnify" viewBox="0 0 375 299.999988" height="400" preserveAspectRatio="xMidYMid meet" version="1.0"><defs><g/><clipPath id="id1"><path d="M 77 23.730469 L 316.867188 23.730469 L 316.867188 171.480469 L 77 171.480469 Z M 77 23.730469 " clip-rule="nonzero"/></clipPath><clipPath id="id2"><path d="M 74 157 L 141 157 L 141 171.480469 L 74 171.480469 Z M 74 157 " clip-rule="nonzero"/></clipPath><clipPath id="id3"><path d="M 117 23.730469 L 139 23.730469 L 139 38 L 117 38 Z M 117 23.730469 " clip-rule="nonzero"/></clipPath><clipPath id="id4"><path d="M 48.367188 77 L 70 77 L 70 91 L 48.367188 91 Z M 48.367188 77 " clip-rule="nonzero"/></clipPath></defs><path fill="#545454" d="M 221.875 57.355469 L 216.710938 88.453125 C 218.445312 87.957031 220.195312 87.1875 221.90625 86.597656 C 226.472656 85.015625 232.351562 82.574219 237.089844 80.796875 C 240.441406 79.535156 243.917969 78.195312 247.230469 76.90625 C 248.597656 76.371094 256.832031 73.328125 257.355469 72.972656 C 256.855469 71.8125 252.21875 67.210938 251.136719 66.410156 C 250.546875 65.976562 250.007812 65.464844 249.359375 65.027344 C 248.707031 64.585938 248.132812 64.167969 247.414062 63.679688 C 243.695312 61.132812 238.328125 58.957031 233.730469 58.023438 C 230.496094 57.367188 225.207031 56.796875 221.875 57.355469 Z M 189.351562 79.660156 C 189.851562 80.289062 195.410156 84.804688 196.550781 85.84375 C 199.441406 88.472656 203.820312 91.828125 206.8125 94.550781 C 208.457031 96.046875 210.925781 97.957031 212.710938 99.511719 C 212.792969 99.382812 212.734375 99.53125 212.820312 99.25 L 219.710938 57.585938 C 210.367188 58.902344 203.65625 62.894531 197.691406 68.3125 C 196.523438 69.378906 195.691406 70.453125 194.53125 71.726562 C 194.0625 72.238281 193.480469 72.980469 193.085938 73.570312 C 191.9375 75.285156 191.640625 75.578125 190.5 77.5625 C 190.132812 78.191406 189.746094 79.089844 189.359375 79.667969 Z M 229.558594 85.894531 C 229.867188 86.125 230.132812 86.421875 230.476562 86.683594 C 230.851562 86.972656 231.113281 87.199219 231.53125 87.523438 C 231.917969 87.816406 232.207031 87.980469 232.628906 88.328125 L 236.808594 91.617188 C 237.179688 91.898438 237.484375 92.195312 237.84375 92.472656 C 238.605469 93.054688 239.117188 93.5 239.890625 94.09375 L 256.585938 107.230469 C 257.304688 107.75 258.03125 108.351562 258.734375 108.882812 L 262.851562 112.125 C 263.921875 110.019531 264.960938 105.523438 265.308594 102.820312 C 266.410156 94.316406 264.945312 85.902344 260.949219 78.464844 C 260.214844 77.101562 259.441406 75.980469 258.734375 74.746094 Z M 230.949219 137.167969 C 233.757812 137.148438 239.292969 135.21875 241.589844 134.222656 C 244.976562 132.753906 249.457031 129.976562 251.941406 127.632812 C 252.605469 127.011719 253.125 126.589844 253.71875 126 C 254.335938 125.390625 254.730469 124.890625 255.386719 124.253906 C 255.910156 123.742188 256.390625 123.027344 256.871094 122.441406 C 258.226562 120.78125 261.480469 116.109375 262.011719 114.046875 L 238.257812 95.4375 C 237.84375 96.269531 237.488281 99.5 237.28125 100.6875 L 232.765625 126.773438 C 232.167969 130.179688 231.667969 133.847656 230.953125 137.167969 Z M 234.011719 107.164062 L 193.667969 121.910156 C 194.902344 123.566406 196.695312 125.59375 198.242188 126.90625 C 198.765625 127.34375 199.339844 128.007812 199.910156 128.394531 C 201.019531 129.15625 202.105469 130.171875 203.628906 131.125 C 207.980469 133.855469 211.824219 135.523438 217.136719 136.710938 C 219.550781 137.246094 226.449219 138.042969 228.828125 137.386719 L 234.019531 107.164062 Z M 188.472656 81.734375 C 187.9375 82.613281 187.175781 85.09375 186.839844 86.28125 C 183.921875 96.453125 185.152344 107.117188 190.0625 116.367188 L 192.304688 120.132812 C 193.792969 119.738281 197.84375 118.117188 199.691406 117.472656 C 202.140625 116.621094 204.496094 115.722656 206.921875 114.84375 C 209.332031 113.976562 211.746094 113.105469 214.144531 112.203125 C 214.800781 111.960938 220.851562 109.953125 221.335938 109.460938 Z M 188.472656 81.734375 " fill-opacity="1" fill-rule="evenodd"/><path fill="#545454" d="M 94.253906 51.09375 L 65.734375 51.09375 C 62.054688 51.09375 59.042969 54.105469 59.042969 57.789062 C 59.042969 61.46875 62.054688 64.480469 65.734375 64.480469 L 94.253906 64.480469 C 97.933594 64.480469 100.945312 61.46875 100.945312 57.789062 C 100.945312 54.105469 97.933594 51.09375 94.253906 51.09375 Z M 94.253906 51.09375 " fill-opacity="1" fill-rule="evenodd"/><g clip-path="url(#id1)"><path fill="#ed5b2d" d="M 228.167969 145.921875 C 227.269531 145.976562 226.363281 145.996094 225.449219 145.996094 C 225.363281 145.996094 225.273438 145.996094 225.1875 145.996094 C 225.101562 145.996094 225.015625 145.996094 224.925781 145.996094 C 198.230469 145.996094 176.578125 124.339844 176.578125 97.636719 C 176.578125 70.933594 198.230469 49.277344 224.925781 49.277344 C 225.011719 49.277344 225.097656 49.277344 225.1875 49.277344 C 225.273438 49.277344 225.359375 49.277344 225.449219 49.277344 C 226.363281 49.277344 227.269531 49.300781 228.167969 49.347656 C 253.601562 50.757812 273.796875 71.839844 273.796875 97.636719 C 273.796875 123.425781 253.601562 144.511719 228.167969 145.921875 Z M 265.773438 23.984375 L 226.429688 23.984375 C 226.015625 23.964844 225.609375 23.957031 225.195312 23.957031 C 224.78125 23.949219 224.375 23.957031 223.960938 23.984375 L 154.757812 23.984375 C 151.078125 23.984375 148.066406 26.996094 148.066406 30.675781 C 148.066406 34.359375 151.078125 37.371094 154.757812 37.371094 L 182.1875 37.371094 C 182.246094 37.371094 182.300781 37.378906 182.359375 37.378906 L 182.367188 37.378906 C 182.476562 37.382812 182.589844 37.390625 182.699219 37.402344 L 182.707031 37.402344 C 182.757812 37.410156 182.816406 37.417969 182.871094 37.421875 C 183.035156 37.445312 183.199219 37.46875 183.363281 37.503906 L 183.371094 37.503906 L 183.527344 37.535156 L 183.683594 37.574219 L 183.839844 37.621094 L 183.992188 37.667969 L 184.003906 37.667969 L 184.15625 37.710938 L 184.167969 37.710938 L 184.269531 37.746094 C 184.394531 37.792969 184.515625 37.835938 184.640625 37.890625 C 187.035156 38.914062 188.722656 41.296875 188.722656 44.050781 C 188.722656 47.734375 185.710938 50.746094 182.03125 50.746094 L 121.515625 50.746094 C 117.832031 50.746094 114.824219 53.757812 114.824219 57.441406 C 114.824219 61.121094 117.832031 64.132812 121.515625 64.132812 L 147.554688 64.132812 L 147.679688 64.140625 L 147.730469 64.140625 L 147.847656 64.148438 L 147.890625 64.148438 L 148.039062 64.160156 L 148.050781 64.160156 L 148.195312 64.171875 L 148.242188 64.179688 L 148.355469 64.191406 L 148.402344 64.199219 L 148.539062 64.21875 L 148.550781 64.21875 L 148.703125 64.246094 L 148.742188 64.25 L 148.851562 64.277344 L 148.898438 64.292969 L 149.015625 64.316406 L 149.042969 64.324219 L 149.1875 64.363281 L 149.21875 64.371094 L 149.332031 64.402344 L 149.378906 64.414062 L 149.476562 64.449219 L 149.523438 64.460938 L 149.660156 64.507812 L 149.671875 64.515625 L 149.796875 64.558594 L 149.835938 64.574219 L 149.941406 64.613281 L 149.980469 64.632812 L 150.113281 64.691406 L 150.121094 64.691406 L 150.25 64.757812 L 150.289062 64.777344 L 150.386719 64.824219 L 150.425781 64.84375 L 150.53125 64.902344 L 150.550781 64.914062 L 150.683594 64.988281 L 150.710938 65 L 150.808594 65.058594 L 150.847656 65.078125 L 150.945312 65.136719 L 150.972656 65.15625 L 151.097656 65.234375 L 151.117188 65.25 L 151.214844 65.320312 L 151.253906 65.347656 L 151.339844 65.414062 L 151.371094 65.441406 L 151.492188 65.53125 L 151.601562 65.625 L 151.636719 65.648438 L 151.71875 65.722656 L 151.753906 65.746094 L 151.851562 65.832031 L 151.863281 65.847656 L 151.96875 65.945312 L 152.105469 66.082031 L 152.1875 66.160156 L 152.210938 66.1875 L 152.3125 66.292969 L 152.332031 66.3125 L 152.410156 66.398438 L 152.441406 66.429688 L 152.515625 66.515625 L 152.535156 66.542969 L 152.625 66.660156 L 152.632812 66.667969 L 152.71875 66.773438 L 152.742188 66.8125 L 152.800781 66.890625 L 152.828125 66.929688 L 152.90625 67.039062 L 152.914062 67.054688 L 153 67.179688 L 153.019531 67.203125 L 153.078125 67.304688 L 153.097656 67.34375 L 153.15625 67.449219 L 153.171875 67.46875 L 153.242188 67.597656 L 153.261719 67.632812 L 153.3125 67.730469 L 153.335938 67.769531 L 153.386719 67.867188 L 153.398438 67.902344 L 153.464844 68.03125 L 153.472656 68.050781 L 153.523438 68.167969 L 153.542969 68.207031 L 153.582031 68.3125 L 153.597656 68.351562 L 153.601562 68.378906 C 153.65625 68.503906 153.695312 68.636719 153.742188 68.765625 C 153.945312 69.410156 154.054688 70.085938 154.054688 70.792969 C 154.054688 74.476562 151.042969 77.488281 147.363281 77.488281 L 83.992188 77.488281 C 80.3125 77.488281 77.300781 80.5 77.300781 84.183594 C 77.300781 87.863281 80.3125 90.875 83.992188 90.875 L 133.21875 90.875 L 133.210938 90.894531 C 133.382812 90.910156 133.546875 90.929688 133.710938 90.949219 C 136.933594 91.425781 139.417969 94.222656 139.417969 97.570312 C 139.417969 100.917969 136.933594 103.710938 133.710938 104.191406 C 133.546875 104.21875 133.382812 104.238281 133.210938 104.246094 L 133.21875 104.265625 L 97.730469 104.265625 C 94.050781 104.265625 91.039062 107.277344 91.039062 110.957031 C 91.039062 114.640625 94.050781 117.652344 97.730469 117.652344 L 147.363281 117.652344 C 151.042969 117.652344 154.054688 120.664062 154.054688 124.34375 C 154.054688 125.054688 153.945312 125.730469 153.742188 126.375 C 153.703125 126.503906 153.65625 126.628906 153.601562 126.761719 L 153.597656 126.78125 L 153.542969 126.917969 L 153.523438 126.964844 L 153.476562 127.074219 L 153.472656 127.09375 L 153.414062 127.226562 L 153.394531 127.265625 L 153.347656 127.363281 L 153.328125 127.410156 L 153.261719 127.542969 L 153.191406 127.667969 L 153.175781 127.691406 L 153.117188 127.789062 L 153.089844 127.832031 L 153.03125 127.921875 L 152.933594 128.078125 L 152.921875 128.097656 L 152.847656 128.203125 L 152.816406 128.242188 L 152.757812 128.324219 L 152.730469 128.363281 L 152.652344 128.464844 L 152.636719 128.480469 L 152.546875 128.589844 L 152.519531 128.617188 L 152.449219 128.703125 L 152.414062 128.734375 L 152.34375 128.820312 L 152.316406 128.847656 L 152.21875 128.953125 L 151.976562 129.195312 L 151.871094 129.292969 L 151.851562 129.308594 L 151.757812 129.386719 L 151.726562 129.417969 L 151.648438 129.484375 L 151.609375 129.515625 L 151.503906 129.601562 L 151.496094 129.609375 L 151.386719 129.695312 L 151.351562 129.71875 L 151.265625 129.785156 L 151.226562 129.8125 L 151.128906 129.882812 L 151.109375 129.898438 L 150.984375 129.976562 L 150.960938 129.996094 L 150.859375 130.054688 L 150.820312 130.074219 L 150.722656 130.132812 L 150.695312 130.148438 L 150.566406 130.21875 L 150.546875 130.230469 L 150.441406 130.292969 L 150.402344 130.3125 L 150.304688 130.355469 L 150.132812 130.441406 L 150.125 130.449219 L 149.996094 130.507812 L 149.957031 130.527344 L 149.851562 130.566406 L 149.8125 130.578125 L 149.6875 130.625 L 149.671875 130.632812 L 149.535156 130.679688 L 149.488281 130.691406 L 149.390625 130.722656 L 149.34375 130.738281 L 149.234375 130.769531 L 149.199219 130.777344 L 149.054688 130.816406 L 149.03125 130.824219 L 148.914062 130.847656 L 148.867188 130.863281 L 148.839844 130.867188 C 148.472656 130.949219 148.113281 131 147.757812 131.019531 L 147.71875 131.019531 L 147.632812 131.027344 L 121.554688 131.027344 C 117.875 131.027344 114.863281 134.039062 114.863281 137.71875 C 114.863281 141.402344 117.875 144.414062 121.554688 144.414062 L 182.070312 144.414062 C 185.75 144.414062 188.761719 147.425781 188.761719 151.109375 C 188.761719 153.863281 187.078125 156.246094 184.679688 157.269531 C 184.558594 157.324219 184.433594 157.375 184.308594 157.414062 L 184.695312 157.800781 L 154.804688 157.800781 C 151.125 157.800781 148.113281 160.8125 148.113281 164.496094 C 148.113281 168.175781 151.125 171.1875 154.804688 171.1875 L 224.011719 171.1875 L 223.980469 171.1875 C 224.402344 171.207031 224.820312 171.222656 225.242188 171.214844 C 225.660156 171.222656 226.082031 171.214844 226.5 171.1875 L 226.46875 171.1875 L 276.328125 171.1875 C 298.648438 171.1875 316.90625 152.925781 316.90625 130.597656 L 316.90625 64.453125 C 316.90625 42.128906 298.648438 23.867188 276.328125 23.867188 L 265.8125 23.867188 Z M 265.773438 23.984375 " fill-opacity="1" fill-rule="evenodd"/></g><path fill="#545454" d="M 78.476562 104.296875 L 64.210938 104.296875 C 60.53125 104.296875 57.519531 107.308594 57.519531 110.992188 C 57.519531 114.671875 60.53125 117.683594 64.210938 117.683594 L 78.476562 117.683594 C 82.15625 117.683594 85.167969 114.671875 85.167969 110.992188 C 85.167969 107.308594 82.15625 104.296875 78.476562 104.296875 Z M 78.476562 104.296875 " fill-opacity="1" fill-rule="evenodd"/><g clip-path="url(#id2)"><path fill="#545454" d="M 133.699219 157.75 L 80.757812 157.75 C 77.078125 157.75 74.066406 160.761719 74.066406 164.441406 C 74.066406 168.125 77.078125 171.136719 80.757812 171.136719 L 133.699219 171.136719 C 137.378906 171.136719 140.390625 168.125 140.390625 164.441406 C 140.390625 160.761719 137.378906 157.75 133.699219 157.75 Z M 133.699219 157.75 " fill-opacity="1" fill-rule="evenodd"/></g><g clip-path="url(#id3)"><path fill="#545454" d="M 132.175781 23.890625 L 124.277344 23.890625 C 120.597656 23.890625 117.585938 26.902344 117.585938 30.585938 C 117.585938 34.265625 120.597656 37.28125 124.277344 37.28125 L 132.175781 37.28125 C 135.855469 37.28125 138.867188 34.265625 138.867188 30.585938 C 138.867188 26.902344 135.855469 23.890625 132.175781 23.890625 Z M 132.175781 23.890625 " fill-opacity="1" fill-rule="evenodd"/></g><path fill="#545454" d="M 94.765625 131.175781 L 86.867188 131.175781 C 83.1875 131.175781 80.175781 134.1875 80.175781 137.871094 C 80.175781 141.550781 83.1875 144.566406 86.867188 144.566406 L 94.765625 144.566406 C 98.445312 144.566406 101.457031 141.550781 101.457031 137.871094 C 101.457031 134.1875 98.445312 131.175781 94.765625 131.175781 Z M 94.765625 131.175781 " fill-opacity="1" fill-rule="evenodd"/><g clip-path="url(#id4)"><path fill="#545454" d="M 62.960938 77.601562 L 55.058594 77.601562 C 51.378906 77.601562 48.367188 80.613281 48.367188 84.292969 C 48.367188 87.976562 51.378906 90.988281 55.058594 90.988281 L 62.960938 90.988281 C 66.640625 90.988281 69.652344 87.976562 69.652344 84.292969 C 69.652344 80.613281 66.640625 77.601562 62.960938 77.601562 Z M 62.960938 77.601562 " fill-opacity="1" fill-rule="evenodd"/></g><g fill="#545454" fill-opacity="1"><g transform="translate(45.352394, 237.973317)"><g><path d="M 4.15625 -53.359375 L 28.671875 -53.359375 C 36.816406 -53.359375 40.890625 -49.921875 40.890625 -43.046875 L 40.890625 -10.3125 C 40.890625 -3.4375 36.816406 0 28.671875 0 L 4.15625 0 Z M 26.34375 -11.390625 L 26.34375 -41.96875 C 26.34375 -43.1875 25.648438 -43.796875 24.265625 -43.796875 L 18.703125 -43.796875 L 18.703125 -9.5625 L 24.265625 -9.5625 C 25.648438 -9.5625 26.34375 -10.171875 26.34375 -11.390625 Z M 26.34375 -11.390625 "/></g></g></g><g fill="#545454" fill-opacity="1"><g transform="translate(89.314371, 237.973317)"><g><path d="M 3.078125 -45.625 L 3.078125 -55.59375 L 17.703125 -55.59375 L 17.703125 -45.625 Z M 17.453125 0 L 3.328125 0 L 3.328125 -41.46875 L 17.453125 -41.46875 Z M 17.453125 0 "/></g></g></g><g fill="#545454" fill-opacity="1"><g transform="translate(110.090354, 237.973317)"><g><path d="M 21.1875 -10.96875 L 21.1875 -14.296875 C 21.1875 -15.515625 20.492188 -16.125 19.109375 -16.125 L 14.046875 -16.125 C 6.066406 -16.125 2.078125 -19.53125 2.078125 -26.34375 L 2.078125 -31.171875 C 2.078125 -38.035156 6.148438 -41.46875 14.296875 -41.46875 L 22.03125 -41.46875 C 30.164062 -41.46875 34.234375 -38.035156 34.234375 -31.171875 L 34.234375 -27.671875 L 20.78125 -27.671875 L 20.78125 -30.5 C 20.78125 -31.71875 20.085938 -32.328125 18.703125 -32.328125 L 17.875 -32.328125 C 16.488281 -32.328125 15.796875 -31.71875 15.796875 -30.5 L 15.796875 -26.84375 C 15.796875 -25.625 16.488281 -25.015625 17.875 -25.015625 L 22.9375 -25.015625 C 27.207031 -25.015625 30.269531 -24.140625 32.125 -22.390625 C 33.976562 -20.648438 34.90625 -18.144531 34.90625 -14.875 L 34.90625 -10.3125 C 34.90625 -3.4375 30.832031 0 22.6875 0 L 14.546875 0 C 6.398438 0 2.328125 -3.4375 2.328125 -10.3125 L 2.328125 -13.71875 L 16.046875 -13.71875 L 16.046875 -10.96875 C 16.046875 -9.75 16.738281 -9.140625 18.125 -9.140625 L 19.109375 -9.140625 C 20.492188 -9.140625 21.1875 -9.75 21.1875 -10.96875 Z M 21.1875 -10.96875 "/></g></g></g><g fill="#545454" fill-opacity="1"><g transform="translate(147.071595, 237.973317)"><g><path d="M 35.8125 -25.4375 L 22.1875 -25.4375 L 22.1875 -29.25 C 22.1875 -30.46875 21.492188 -31.078125 20.109375 -31.078125 L 18.703125 -31.078125 C 17.316406 -31.078125 16.625 -30.46875 16.625 -29.25 L 16.625 -12.21875 C 16.625 -11 17.316406 -10.390625 18.703125 -10.390625 L 20.109375 -10.390625 C 21.492188 -10.390625 22.1875 -11 22.1875 -12.21875 L 22.1875 -16.046875 L 35.8125 -16.046875 L 35.8125 -10.3125 C 35.8125 -3.4375 31.742188 0 23.609375 0 L 14.703125 0 C 6.566406 0 2.5 -3.4375 2.5 -10.3125 L 2.5 -31.171875 C 2.5 -38.035156 6.566406 -41.46875 14.703125 -41.46875 L 23.609375 -41.46875 C 31.742188 -41.46875 35.8125 -38.035156 35.8125 -31.171875 Z M 35.8125 -25.4375 "/></g></g></g><g fill="#545454" fill-opacity="1"><g transform="translate(184.551467, 237.973317)"><g><path d="M 14.703125 -41.46875 L 25.265625 -41.46875 C 29.472656 -41.46875 32.488281 -40.582031 34.3125 -38.8125 C 36.144531 -37.039062 37.0625 -34.492188 37.0625 -31.171875 L 37.0625 -10.3125 C 37.0625 -6.976562 36.144531 -4.425781 34.3125 -2.65625 C 32.488281 -0.882812 29.472656 0 25.265625 0 L 14.703125 0 C 10.492188 0 7.472656 -0.882812 5.640625 -2.65625 C 3.816406 -4.425781 2.90625 -6.976562 2.90625 -10.3125 L 2.90625 -31.171875 C 2.90625 -34.492188 3.816406 -37.039062 5.640625 -38.8125 C 7.472656 -40.582031 10.492188 -41.46875 14.703125 -41.46875 Z M 23.1875 -11.640625 L 23.1875 -29.84375 C 23.1875 -31.0625 22.492188 -31.671875 21.109375 -31.671875 L 18.859375 -31.671875 C 17.472656 -31.671875 16.78125 -31.0625 16.78125 -29.84375 L 16.78125 -11.640625 C 16.78125 -10.421875 17.472656 -9.8125 18.859375 -9.8125 L 21.109375 -9.8125 C 22.492188 -9.8125 23.1875 -10.421875 23.1875 -11.640625 Z M 23.1875 -11.640625 "/></g></g></g><g fill="#545454" fill-opacity="1"><g transform="translate(224.52445, 237.973317)"><g><path d="M 14.046875 -41.46875 L 19.109375 -14.875 L 24.109375 -41.46875 L 38.140625 -41.46875 L 27.515625 0 L 10.640625 0 L 0 -41.46875 Z M 14.046875 -41.46875 "/></g></g></g><g fill="#545454" fill-opacity="1"><g transform="translate(262.669155, 237.973317)"><g><path d="M 14.703125 -41.46875 L 24.84375 -41.46875 C 32.988281 -41.46875 37.0625 -38.035156 37.0625 -31.171875 L 37.0625 -17.03125 L 15.875 -17.03125 L 15.875 -11.546875 C 15.875 -10.328125 16.566406 -9.71875 17.953125 -9.71875 L 21.609375 -9.71875 C 22.992188 -9.71875 23.6875 -10.382812 23.6875 -11.71875 L 23.6875 -14.046875 L 37.0625 -14.046875 L 37.0625 -10.3125 C 37.0625 -3.4375 32.988281 0 24.84375 0 L 14.703125 0 C 6.566406 0 2.5 -3.4375 2.5 -10.3125 L 2.5 -31.171875 C 2.5 -38.035156 6.566406 -41.46875 14.703125 -41.46875 Z M 15.875 -24.6875 L 23.6875 -24.6875 L 23.6875 -29.921875 C 23.6875 -31.140625 22.992188 -31.75 21.609375 -31.75 L 17.953125 -31.75 C 16.566406 -31.75 15.875 -31.140625 15.875 -29.921875 Z M 15.875 -24.6875 "/></g></g></g><g fill="#545454" fill-opacity="1"><g transform="translate(301.811101, 237.973317)"><g><path d="M 26.171875 -41.890625 L 27.421875 -41.890625 L 27.421875 -29.59375 L 22.6875 -29.59375 C 19.195312 -29.59375 17.453125 -27.707031 17.453125 -23.9375 L 17.453125 0 L 3.328125 0 L 3.328125 -41.46875 L 17.203125 -41.46875 L 17.203125 -35.078125 C 17.648438 -37.179688 18.644531 -38.84375 20.1875 -40.0625 C 21.738281 -41.28125 23.734375 -41.890625 26.171875 -41.890625 Z M 26.171875 -41.890625 "/></g></g></g><g fill="#ed5b2d" fill-opacity="1"><g transform="translate(56.525488, 280.881484)"><g><path d="M 16.9375 -25.46875 L 16.9375 -20.515625 L 12.015625 -20.515625 L 12.015625 0 L 5.078125 0 L 5.078125 -20.515625 L 0.203125 -20.515625 L 0.203125 -25.46875 Z M 16.9375 -25.46875 "/></g></g></g><g fill="#ed5b2d" fill-opacity="1"><g transform="translate(75.644009, 280.881484)"><g><path d="M 8.53125 -4.953125 L 17.21875 -4.953125 L 17.21875 0 L 1.59375 0 L 1.59375 -25.46875 L 16.859375 -25.46875 L 16.859375 -20.515625 L 8.53125 -20.515625 L 8.53125 -15.3125 L 15.703125 -15.3125 L 15.703125 -10.359375 L 8.53125 -10.359375 Z M 8.53125 -4.953125 "/></g></g></g><g fill="#ed5b2d" fill-opacity="1"><g transform="translate(95.436832, 280.881484)"><g><path d="M 11.34375 -5.828125 L 11.34375 -9.4375 C 11.34375 -10.019531 11.015625 -10.3125 10.359375 -10.3125 L 6.546875 -10.3125 C 4.585938 -10.3125 3.203125 -10.738281 2.390625 -11.59375 C 1.585938 -12.457031 1.1875 -13.695312 1.1875 -15.3125 L 1.1875 -20.546875 C 1.1875 -23.828125 3.117188 -25.46875 6.984375 -25.46875 L 12.421875 -25.46875 C 16.273438 -25.46875 18.203125 -23.828125 18.203125 -20.546875 L 18.203125 -17.5 L 11.265625 -17.5 L 11.265625 -19.640625 C 11.265625 -20.222656 10.9375 -20.515625 10.28125 -20.515625 L 9.125 -20.515625 C 8.457031 -20.515625 8.125 -20.222656 8.125 -19.640625 L 8.125 -15.875 C 8.125 -15.289062 8.457031 -15 9.125 -15 L 12.859375 -15 C 14.816406 -15 16.207031 -14.585938 17.03125 -13.765625 C 17.863281 -12.941406 18.28125 -11.738281 18.28125 -10.15625 L 18.28125 -4.921875 C 18.28125 -1.640625 16.351562 0 12.5 0 L 7.09375 0 C 3.207031 0 1.265625 -1.640625 1.265625 -4.921875 L 1.265625 -7.96875 L 8.21875 -7.96875 L 8.21875 -5.828125 C 8.21875 -5.242188 8.546875 -4.953125 9.203125 -4.953125 L 10.359375 -4.953125 C 11.015625 -4.953125 11.34375 -5.242188 11.34375 -5.828125 Z M 11.34375 -5.828125 "/></g></g></g><g fill="#ed5b2d" fill-opacity="1"><g transform="translate(116.895585, 280.881484)"><g><path d="M 16.9375 -25.46875 L 16.9375 -20.515625 L 12.015625 -20.515625 L 12.015625 0 L 5.078125 0 L 5.078125 -20.515625 L 0.203125 -20.515625 L 0.203125 -25.46875 Z M 16.9375 -25.46875 "/></g></g></g><g fill="#ed5b2d" fill-opacity="1"><g transform="translate(136.014109, 280.881484)"><g/></g></g><g fill="#ed5b2d" fill-opacity="1"><g transform="translate(145.930354, 280.881484)"><g><path d="M 18.640625 -15.953125 L 11.703125 -15.953125 L 11.703125 -20.03125 C 11.703125 -20.613281 11.375 -20.90625 10.71875 -20.90625 L 9.328125 -20.90625 C 8.660156 -20.90625 8.328125 -20.613281 8.328125 -20.03125 L 8.328125 -5.4375 C 8.328125 -4.851562 8.660156 -4.5625 9.328125 -4.5625 L 10.71875 -4.5625 C 11.375 -4.5625 11.703125 -4.851562 11.703125 -5.4375 L 11.703125 -9.359375 L 18.640625 -9.359375 L 18.640625 -4.921875 C 18.640625 -1.640625 16.695312 0 12.8125 0 L 7.21875 0 C 3.332031 0 1.390625 -1.640625 1.390625 -4.921875 L 1.390625 -20.546875 C 1.390625 -23.828125 3.332031 -25.46875 7.21875 -25.46875 L 12.8125 -25.46875 C 16.695312 -25.46875 18.640625 -23.828125 18.640625 -20.546875 Z M 18.640625 -15.953125 "/></g></g></g><g fill="#ed5b2d" fill-opacity="1"><g transform="translate(167.547771, 280.881484)"><g><path d="M 7.296875 -25.46875 L 13.171875 -25.46875 C 17.054688 -25.46875 19 -23.828125 19 -20.546875 L 19 -4.921875 C 19 -1.640625 17.054688 0 13.171875 0 L 7.296875 0 C 3.410156 0 1.46875 -1.640625 1.46875 -4.921875 L 1.46875 -20.546875 C 1.46875 -23.828125 3.410156 -25.46875 7.296875 -25.46875 Z M 12.0625 -5.828125 L 12.0625 -19.640625 C 12.0625 -20.222656 11.726562 -20.515625 11.0625 -20.515625 L 9.40625 -20.515625 C 8.738281 -20.515625 8.40625 -20.222656 8.40625 -19.640625 L 8.40625 -5.828125 C 8.40625 -5.242188 8.738281 -4.953125 9.40625 -4.953125 L 11.0625 -4.953125 C 11.726562 -4.953125 12.0625 -5.242188 12.0625 -5.828125 Z M 12.0625 -5.828125 "/></g></g></g><g fill="#ed5b2d" fill-opacity="1"><g transform="translate(189.99815, 280.881484)"><g><path d="M 13.640625 -25.46875 L 20.875 -25.46875 L 14.59375 0 L 6.546875 0 L 0.28125 -25.46875 L 7.5 -25.46875 L 10.546875 -8.453125 Z M 13.640625 -25.46875 "/></g></g></g><g fill="#ed5b2d" fill-opacity="1"><g transform="translate(213.12283, 280.881484)"><g><path d="M 8.53125 -4.953125 L 17.21875 -4.953125 L 17.21875 0 L 1.59375 0 L 1.59375 -25.46875 L 16.859375 -25.46875 L 16.859375 -20.515625 L 8.53125 -20.515625 L 8.53125 -15.3125 L 15.703125 -15.3125 L 15.703125 -10.359375 L 8.53125 -10.359375 Z M 8.53125 -4.953125 "/></g></g></g><g fill="#ed5b2d" fill-opacity="1"><g transform="translate(232.915656, 280.881484)"><g><path d="M 8.53125 -9.046875 L 8.53125 0 L 1.59375 0 L 1.59375 -25.46875 L 13.375 -25.46875 C 17.257812 -25.46875 19.203125 -23.828125 19.203125 -20.546875 L 19.203125 -13.96875 C 19.203125 -11.457031 18.066406 -9.910156 15.796875 -9.328125 L 20.46875 0 L 13.015625 0 L 8.96875 -9.046875 Z M 11.265625 -20.515625 L 8.53125 -20.515625 L 8.53125 -13.765625 L 11.265625 -13.765625 C 11.929688 -13.765625 12.265625 -14.054688 12.265625 -14.640625 L 12.265625 -19.640625 C 12.265625 -20.222656 11.929688 -20.515625 11.265625 -20.515625 Z M 11.265625 -20.515625 "/></g></g></g><g fill="#ed5b2d" fill-opacity="1"><g transform="translate(255.286705, 280.881484)"><g><path d="M 14.5625 0 L 13.765625 -3.8125 L 7.65625 -3.8125 L 6.828125 0 L 0 0 L 6.546875 -25.46875 L 15 -25.46875 L 21.546875 0 Z M 8.734375 -8.734375 L 12.6875 -8.734375 L 10.75 -17.890625 Z M 8.734375 -8.734375 "/></g></g></g><g fill="#ed5b2d" fill-opacity="1"><g transform="translate(278.808022, 280.881484)"><g><path d="M 18.6875 -16.734375 L 11.75 -16.734375 L 11.75 -20.03125 C 11.75 -20.613281 11.414062 -20.90625 10.75 -20.90625 L 9.328125 -20.90625 C 8.660156 -20.90625 8.328125 -20.613281 8.328125 -20.03125 L 8.328125 -5.4375 C 8.328125 -4.851562 8.660156 -4.5625 9.328125 -4.5625 L 10.75 -4.5625 C 11.414062 -4.5625 11.75 -4.851562 11.75 -5.4375 L 11.75 -9.6875 L 9.765625 -9.6875 L 9.765625 -14.078125 L 18.6875 -14.078125 L 18.6875 -4.921875 C 18.6875 -1.640625 16.742188 0 12.859375 0 L 7.21875 0 C 3.332031 0 1.390625 -1.640625 1.390625 -4.921875 L 1.390625 -20.546875 C 1.390625 -23.828125 3.332031 -25.46875 7.21875 -25.46875 L 12.859375 -25.46875 C 16.742188 -25.46875 18.6875 -23.828125 18.6875 -20.546875 Z M 18.6875 -16.734375 "/></g></g></g><g fill="#ed5b2d" fill-opacity="1"><g transform="translate(300.663418, 280.881484)"><g><path d="M 8.53125 -4.953125 L 17.21875 -4.953125 L 17.21875 0 L 1.59375 0 L 1.59375 -25.46875 L 16.859375 -25.46875 L 16.859375 -20.515625 L 8.53125 -20.515625 L 8.53125 -15.3125 L 15.703125 -15.3125 L 15.703125 -10.359375 L 8.53125 -10.359375 Z M 8.53125 -4.953125 "/></g></g></g></svg>