<svg xmlns="http://www.w3.org/2000/svg" xmlns:xlink="http://www.w3.org/1999/xlink" width="500" zoomAndPan="magnify" viewBox="0 0 375 299.999988" height="400" preserveAspectRatio="xMidYMid meet" version="1.0"><defs><g/><clipPath id="id1"><path d="M 70 12.410156 L 324.425781 12.410156 L 324.425781 169 L 70 169 Z M 70 12.410156 " clip-rule="nonzero"/></clipPath><clipPath id="id2"><path d="M 113 12.410156 L 136 12.410156 L 136 27 L 113 27 Z M 113 12.410156 " clip-rule="nonzero"/></clipPath><clipPath id="id3"><path d="M 40.179688 69 L 63 69 L 63 84 L 40.179688 84 Z M 40.179688 69 " clip-rule="nonzero"/></clipPath></defs><path fill="#545454" d="M 223.863281 48.082031 L 218.394531 81.078125 C 220.230469 80.546875 222.082031 79.734375 223.898438 79.105469 C 228.730469 77.429688 234.953125 74.839844 239.96875 72.953125 C 243.519531 71.617188 247.199219 70.195312 250.707031 68.824219 C 252.152344 68.257812 260.867188 65.027344 261.425781 64.652344 C 260.894531 63.421875 255.984375 58.539062 254.839844 57.691406 C 254.214844 57.230469 253.644531 56.6875 252.957031 56.222656 C 252.269531 55.753906 251.660156 55.308594 250.902344 54.792969 C 246.964844 52.09375 241.28125 49.78125 236.414062 48.792969 C 232.988281 48.097656 227.390625 47.492188 223.863281 48.082031 Z M 189.433594 71.746094 C 189.960938 72.417969 195.84375 77.207031 197.050781 78.304688 C 200.113281 81.097656 204.746094 84.65625 207.914062 87.546875 C 209.65625 89.132812 212.269531 91.160156 214.160156 92.808594 C 214.25 92.667969 214.1875 92.828125 214.277344 92.53125 L 221.570312 48.328125 C 211.679688 49.726562 204.574219 53.957031 198.261719 59.710938 C 197.023438 60.835938 196.140625 61.980469 194.914062 63.332031 C 194.417969 63.875 193.800781 64.660156 193.382812 65.285156 C 192.167969 67.105469 191.855469 67.417969 190.648438 69.519531 C 190.257812 70.1875 189.847656 71.140625 189.4375 71.753906 Z M 231.996094 78.363281 C 232.320312 78.605469 232.605469 78.917969 232.96875 79.199219 C 233.363281 79.503906 233.640625 79.746094 234.085938 80.089844 C 234.496094 80.402344 234.800781 80.574219 235.246094 80.945312 L 239.671875 84.433594 C 240.066406 84.734375 240.386719 85.046875 240.765625 85.339844 C 241.574219 85.957031 242.113281 86.429688 242.933594 87.058594 L 260.609375 100.996094 C 261.367188 101.546875 262.140625 102.1875 262.882812 102.75 L 267.246094 106.191406 C 268.375 103.957031 269.472656 99.1875 269.84375 96.316406 C 271.007812 87.292969 269.460938 78.367188 265.230469 70.480469 C 264.453125 69.03125 263.632812 67.84375 262.882812 66.53125 Z M 233.46875 132.757812 C 236.441406 132.738281 242.300781 130.691406 244.734375 129.632812 C 248.316406 128.074219 253.0625 125.128906 255.695312 122.644531 C 256.394531 121.980469 256.945312 121.535156 257.574219 120.910156 C 258.230469 120.261719 258.644531 119.734375 259.339844 119.058594 C 259.894531 118.515625 260.402344 117.753906 260.910156 117.136719 C 262.347656 115.375 265.792969 110.417969 266.355469 108.230469 L 241.207031 88.484375 C 240.769531 89.371094 240.390625 92.796875 240.171875 94.054688 L 235.390625 121.730469 C 234.757812 125.34375 234.230469 129.238281 233.476562 132.757812 Z M 236.710938 100.925781 L 194.003906 116.570312 C 195.308594 118.328125 197.203125 120.476562 198.84375 121.871094 C 199.398438 122.335938 200.003906 123.039062 200.609375 123.449219 C 201.78125 124.257812 202.933594 125.335938 204.546875 126.347656 C 209.152344 129.242188 213.222656 131.011719 218.847656 132.273438 C 221.402344 132.84375 228.703125 133.683594 231.222656 132.988281 L 236.71875 100.925781 Z M 188.5 73.949219 C 187.933594 74.882812 187.125 77.511719 186.773438 78.773438 C 183.679688 89.566406 184.988281 100.878906 190.183594 110.6875 L 192.558594 114.683594 C 194.132812 114.265625 198.421875 112.546875 200.378906 111.867188 C 202.96875 110.960938 205.464844 110.007812 208.03125 109.074219 C 210.582031 108.15625 213.136719 107.226562 215.679688 106.273438 C 216.375 106.015625 222.777344 103.886719 223.292969 103.363281 Z M 188.5 73.949219 " fill-opacity="1" fill-rule="evenodd"/><path fill="#545454" d="M 88.753906 41.441406 L 58.5625 41.441406 C 54.667969 41.441406 51.476562 44.636719 51.476562 48.542969 C 51.476562 52.449219 54.667969 55.644531 58.5625 55.644531 L 88.753906 55.644531 C 92.652344 55.644531 95.839844 52.449219 95.839844 48.542969 C 95.839844 44.636719 92.652344 41.441406 88.753906 41.441406 Z M 88.753906 41.441406 " fill-opacity="1" fill-rule="evenodd"/><g clip-path="url(#id1)"><path fill="#ed5b2d" d="M 230.523438 142.046875 C 229.570312 142.101562 228.613281 142.125 227.648438 142.125 C 227.558594 142.125 227.460938 142.125 227.371094 142.125 C 227.277344 142.125 227.1875 142.125 227.089844 142.125 C 198.828125 142.125 175.910156 119.148438 175.910156 90.816406 C 175.910156 62.488281 198.828125 39.511719 227.089844 39.511719 C 227.183594 39.511719 227.273438 39.511719 227.371094 39.511719 C 227.460938 39.511719 227.550781 39.511719 227.648438 39.511719 C 228.613281 39.511719 229.570312 39.539062 230.523438 39.589844 C 257.449219 41.085938 278.828125 63.449219 278.828125 90.816406 C 278.828125 118.179688 257.449219 140.550781 230.523438 142.046875 Z M 270.335938 12.679688 L 228.683594 12.679688 C 228.246094 12.65625 227.8125 12.652344 227.375 12.652344 C 226.9375 12.644531 226.507812 12.652344 226.070312 12.679688 L 152.808594 12.679688 C 148.910156 12.679688 145.722656 15.875 145.722656 19.78125 C 145.722656 23.6875 148.910156 26.882812 152.808594 26.882812 L 181.847656 26.882812 C 181.910156 26.882812 181.964844 26.890625 182.027344 26.890625 L 182.035156 26.890625 C 182.152344 26.894531 182.269531 26.902344 182.390625 26.917969 L 182.394531 26.917969 C 182.453125 26.921875 182.515625 26.929688 182.570312 26.9375 C 182.742188 26.957031 182.917969 26.988281 183.089844 27.019531 L 183.097656 27.019531 L 183.265625 27.054688 L 183.429688 27.097656 L 183.597656 27.148438 L 183.757812 27.195312 L 183.773438 27.195312 L 183.929688 27.242188 L 183.945312 27.242188 L 184.050781 27.277344 C 184.179688 27.328125 184.3125 27.375 184.445312 27.433594 C 186.980469 28.519531 188.765625 31.046875 188.765625 33.96875 C 188.765625 37.875 185.578125 41.070312 181.679688 41.070312 L 117.613281 41.070312 C 113.71875 41.070312 110.53125 44.265625 110.53125 48.171875 C 110.53125 52.078125 113.71875 55.273438 117.613281 55.273438 L 145.183594 55.273438 L 145.3125 55.28125 L 145.371094 55.28125 L 145.496094 55.289062 L 145.535156 55.289062 L 145.695312 55.300781 L 145.710938 55.300781 L 145.863281 55.316406 L 145.910156 55.324219 L 146.027344 55.335938 L 146.078125 55.34375 L 146.222656 55.367188 L 146.238281 55.367188 L 146.398438 55.394531 L 146.4375 55.398438 L 146.558594 55.429688 L 146.605469 55.441406 L 146.730469 55.46875 L 146.757812 55.476562 L 146.910156 55.519531 L 146.945312 55.523438 L 147.0625 55.558594 L 147.113281 55.574219 L 147.21875 55.609375 L 147.265625 55.621094 L 147.410156 55.671875 L 147.425781 55.679688 L 147.558594 55.726562 L 147.597656 55.742188 L 147.710938 55.78125 L 147.75 55.804688 L 147.890625 55.867188 L 147.898438 55.867188 L 148.035156 55.9375 L 148.078125 55.957031 L 148.183594 56.003906 L 148.222656 56.027344 L 148.335938 56.089844 L 148.355469 56.101562 L 148.496094 56.179688 L 148.523438 56.195312 L 148.625 56.257812 L 148.667969 56.277344 L 148.773438 56.339844 L 148.800781 56.359375 L 148.933594 56.445312 L 148.953125 56.457031 L 149.058594 56.535156 L 149.097656 56.5625 L 149.1875 56.632812 L 149.222656 56.660156 L 149.347656 56.757812 L 149.46875 56.855469 L 149.5 56.882812 L 149.59375 56.960938 L 149.628906 56.988281 L 149.730469 57.078125 L 149.746094 57.09375 L 149.855469 57.195312 L 150.113281 57.453125 L 150.21875 57.566406 L 150.238281 57.585938 L 150.320312 57.675781 L 150.355469 57.710938 L 150.433594 57.800781 L 150.453125 57.828125 L 150.550781 57.957031 L 150.558594 57.960938 L 150.648438 58.074219 L 150.675781 58.117188 L 150.738281 58.199219 L 150.765625 58.242188 L 150.847656 58.359375 L 150.855469 58.371094 L 150.945312 58.503906 L 150.96875 58.53125 L 151.03125 58.636719 L 151.050781 58.679688 L 151.113281 58.789062 L 151.128906 58.8125 L 151.203125 58.949219 L 151.28125 59.089844 L 151.300781 59.132812 L 151.355469 59.238281 L 151.441406 59.410156 L 151.445312 59.429688 L 151.503906 59.554688 L 151.523438 59.597656 L 151.566406 59.710938 L 151.578125 59.75 L 151.585938 59.78125 C 151.640625 59.910156 151.683594 60.050781 151.730469 60.191406 C 151.945312 60.871094 152.066406 61.589844 152.066406 62.339844 C 152.066406 66.246094 148.875 69.441406 144.980469 69.441406 L 77.890625 69.441406 C 73.996094 69.441406 70.808594 72.640625 70.808594 76.542969 C 70.808594 80.449219 73.996094 83.648438 77.890625 83.648438 L 130.003906 83.648438 L 130 83.667969 C 130.179688 83.679688 130.351562 83.703125 130.527344 83.722656 C 133.9375 84.230469 136.570312 87.199219 136.570312 90.75 C 136.570312 94.300781 133.9375 97.265625 130.527344 97.773438 C 130.351562 97.800781 130.179688 97.820312 130 97.828125 L 130.003906 97.851562 L 92.4375 97.851562 C 88.539062 97.851562 85.351562 101.046875 85.351562 104.953125 C 85.351562 108.859375 88.539062 112.054688 92.4375 112.054688 L 144.980469 112.054688 C 148.875 112.054688 152.066406 115.25 152.066406 119.15625 C 152.066406 119.90625 151.945312 120.625 151.730469 121.304688 C 151.691406 121.445312 151.640625 121.578125 151.585938 121.71875 L 151.578125 121.738281 L 151.566406 121.78125 L 151.523438 121.882812 L 151.503906 121.933594 L 151.453125 122.050781 L 151.445312 122.070312 L 151.382812 122.210938 L 151.363281 122.253906 L 151.316406 122.359375 L 151.292969 122.40625 L 151.246094 122.503906 L 151.222656 122.546875 L 151.148438 122.679688 L 151.132812 122.707031 L 151.070312 122.808594 L 151.042969 122.851562 L 150.980469 122.949219 L 150.960938 122.984375 L 150.878906 123.117188 L 150.863281 123.136719 L 150.785156 123.25 L 150.753906 123.289062 L 150.691406 123.375 L 150.660156 123.414062 L 150.578125 123.527344 L 150.566406 123.542969 L 150.46875 123.660156 L 150.441406 123.6875 L 150.363281 123.777344 L 150.328125 123.8125 L 150.253906 123.902344 L 150.222656 123.929688 L 150.121094 124.042969 L 150.09375 124.070312 L 150.007812 124.152344 L 149.972656 124.1875 L 149.890625 124.273438 L 149.863281 124.300781 L 149.753906 124.40625 L 149.730469 124.417969 L 149.632812 124.503906 L 149.597656 124.535156 L 149.515625 124.605469 L 149.472656 124.640625 L 149.363281 124.730469 L 149.355469 124.738281 L 149.238281 124.828125 L 149.203125 124.855469 L 149.113281 124.925781 L 149.070312 124.953125 L 148.96875 125.03125 L 148.945312 125.046875 L 148.8125 125.128906 L 148.785156 125.148438 L 148.683594 125.210938 L 148.640625 125.234375 L 148.535156 125.296875 L 148.507812 125.308594 L 148.371094 125.386719 L 148.347656 125.398438 L 148.238281 125.460938 L 148.195312 125.484375 L 148.09375 125.53125 L 148.050781 125.554688 L 147.910156 125.621094 L 147.90625 125.628906 L 147.765625 125.691406 L 147.722656 125.714844 L 147.613281 125.753906 L 147.570312 125.769531 L 147.4375 125.816406 L 147.425781 125.824219 L 147.28125 125.875 L 147.230469 125.886719 L 147.078125 125.9375 L 146.960938 125.972656 L 146.925781 125.976562 L 146.773438 126.019531 L 146.746094 126.027344 L 146.621094 126.054688 L 146.570312 126.070312 L 146.542969 126.074219 C 146.152344 126.160156 145.773438 126.214844 145.398438 126.234375 L 145.355469 126.234375 L 145.265625 126.242188 L 117.65625 126.242188 C 113.757812 126.242188 110.570312 129.4375 110.570312 133.34375 C 110.570312 137.25 113.757812 140.445312 117.65625 140.445312 L 181.722656 140.445312 C 185.621094 140.445312 188.808594 143.640625 188.808594 147.546875 C 188.808594 150.472656 187.023438 153 184.488281 154.085938 C 184.355469 154.140625 184.222656 154.195312 184.089844 154.238281 L 184.5 154.648438 L 152.855469 154.648438 C 148.960938 154.648438 145.773438 157.84375 145.773438 161.75 C 145.773438 165.65625 148.960938 168.851562 152.855469 168.851562 L 226.125 168.851562 L 226.089844 168.851562 C 226.535156 168.875 226.980469 168.886719 227.425781 168.878906 C 227.871094 168.886719 228.3125 168.878906 228.757812 168.851562 L 228.722656 168.851562 L 281.511719 168.851562 C 305.140625 168.851562 324.46875 149.476562 324.46875 125.789062 L 324.46875 55.617188 C 324.46875 31.929688 305.140625 12.554688 281.511719 12.554688 L 270.375 12.554688 Z M 270.335938 12.679688 " fill-opacity="1" fill-rule="evenodd"/></g><path fill="#545454" d="M 72.050781 97.882812 L 56.953125 97.882812 C 53.054688 97.882812 49.867188 101.082031 49.867188 104.988281 C 49.867188 108.890625 53.054688 112.089844 56.953125 112.089844 L 72.050781 112.089844 C 75.949219 112.089844 79.136719 108.890625 79.136719 104.988281 C 79.136719 101.082031 75.949219 97.882812 72.050781 97.882812 Z M 72.050781 97.882812 " fill-opacity="1" fill-rule="evenodd"/><path fill="#545454" d="M 130.511719 154.59375 L 74.46875 154.59375 C 70.570312 154.59375 67.382812 157.789062 67.382812 161.695312 C 67.382812 165.601562 70.570312 168.796875 74.46875 168.796875 L 130.511719 168.796875 C 134.410156 168.796875 137.597656 165.601562 137.597656 161.695312 C 137.597656 157.789062 134.410156 154.59375 130.511719 154.59375 Z M 130.511719 154.59375 " fill-opacity="1" fill-rule="evenodd"/><g clip-path="url(#id2)"><path fill="#545454" d="M 128.902344 12.582031 L 120.539062 12.582031 C 116.640625 12.582031 113.453125 15.777344 113.453125 19.683594 C 113.453125 23.589844 116.640625 26.785156 120.539062 26.785156 L 128.902344 26.785156 C 132.796875 26.785156 135.984375 23.589844 135.984375 19.683594 C 135.984375 15.777344 132.796875 12.582031 128.902344 12.582031 Z M 128.902344 12.582031 " fill-opacity="1" fill-rule="evenodd"/></g><path fill="#545454" d="M 89.296875 126.402344 L 80.933594 126.402344 C 77.039062 126.402344 73.851562 129.597656 73.851562 133.503906 C 73.851562 137.410156 77.039062 140.605469 80.933594 140.605469 L 89.296875 140.605469 C 93.195312 140.605469 96.382812 137.410156 96.382812 133.503906 C 96.382812 129.597656 93.195312 126.402344 89.296875 126.402344 Z M 89.296875 126.402344 " fill-opacity="1" fill-rule="evenodd"/><g clip-path="url(#id3)"><path fill="#545454" d="M 55.625 69.5625 L 47.261719 69.5625 C 43.367188 69.5625 40.179688 72.757812 40.179688 76.664062 C 40.179688 80.570312 43.367188 83.765625 47.261719 83.765625 L 55.625 83.765625 C 59.519531 83.765625 62.710938 80.570312 62.710938 76.664062 C 62.710938 72.757812 59.519531 69.5625 55.625 69.5625 Z M 55.625 69.5625 " fill-opacity="1" fill-rule="evenodd"/></g><g fill="#545454" fill-opacity="1"><g transform="translate(36.984379, 239.265859)"><g><path d="M 4.40625 -56.5 L 30.359375 -56.5 C 38.984375 -56.5 43.296875 -52.859375 43.296875 -45.578125 L 43.296875 -10.90625 C 43.296875 -3.632812 38.984375 0 30.359375 0 L 4.40625 0 Z M 27.890625 -12.0625 L 27.890625 -44.4375 C 27.890625 -45.726562 27.160156 -46.375 25.703125 -46.375 L 19.796875 -46.375 L 19.796875 -10.125 L 25.703125 -10.125 C 27.160156 -10.125 27.890625 -10.769531 27.890625 -12.0625 Z M 27.890625 -12.0625 "/></g></g></g><g fill="#545454" fill-opacity="1"><g transform="translate(83.534329, 239.265859)"><g><path d="M 3.25 -48.3125 L 3.25 -58.875 L 18.75 -58.875 L 18.75 -48.3125 Z M 18.484375 0 L 3.515625 0 L 3.515625 -43.90625 L 18.484375 -43.90625 Z M 18.484375 0 "/></g></g></g><g fill="#545454" fill-opacity="1"><g transform="translate(105.533363, 239.265859)"><g><path d="M 22.4375 -11.609375 L 22.4375 -15.140625 C 22.4375 -16.429688 21.703125 -17.078125 20.234375 -17.078125 L 14.875 -17.078125 C 6.425781 -17.078125 2.203125 -20.679688 2.203125 -27.890625 L 2.203125 -33 C 2.203125 -40.269531 6.515625 -43.90625 15.140625 -43.90625 L 23.3125 -43.90625 C 31.9375 -43.90625 36.25 -40.269531 36.25 -33 L 36.25 -29.296875 L 22 -29.296875 L 22 -32.296875 C 22 -33.585938 21.265625 -34.234375 19.796875 -34.234375 L 18.921875 -34.234375 C 17.453125 -34.234375 16.71875 -33.585938 16.71875 -32.296875 L 16.71875 -28.421875 C 16.71875 -27.128906 17.453125 -26.484375 18.921875 -26.484375 L 24.28125 -26.484375 C 28.800781 -26.484375 32.039062 -25.554688 34 -23.703125 C 35.96875 -21.859375 36.953125 -19.207031 36.953125 -15.75 L 36.953125 -10.90625 C 36.953125 -3.632812 32.644531 0 24.03125 0 L 15.40625 0 C 6.78125 0 2.46875 -3.632812 2.46875 -10.90625 L 2.46875 -14.515625 L 16.984375 -14.515625 L 16.984375 -11.609375 C 16.984375 -10.328125 17.71875 -9.6875 19.1875 -9.6875 L 20.234375 -9.6875 C 21.703125 -9.6875 22.4375 -10.328125 22.4375 -11.609375 Z M 22.4375 -11.609375 "/></g></g></g><g fill="#545454" fill-opacity="1"><g transform="translate(144.691631, 239.265859)"><g><path d="M 37.921875 -26.921875 L 23.5 -26.921875 L 23.5 -30.96875 C 23.5 -32.257812 22.765625 -32.90625 21.296875 -32.90625 L 19.796875 -32.90625 C 18.328125 -32.90625 17.59375 -32.257812 17.59375 -30.96875 L 17.59375 -12.9375 C 17.59375 -11.644531 18.328125 -11 19.796875 -11 L 21.296875 -11 C 22.765625 -11 23.5 -11.644531 23.5 -12.9375 L 23.5 -16.984375 L 37.921875 -16.984375 L 37.921875 -10.90625 C 37.921875 -3.632812 33.609375 0 24.984375 0 L 15.578125 0 C 6.953125 0 2.640625 -3.632812 2.640625 -10.90625 L 2.640625 -33 C 2.640625 -40.269531 6.953125 -43.90625 15.578125 -43.90625 L 24.984375 -43.90625 C 33.609375 -43.90625 37.921875 -40.269531 37.921875 -33 Z M 37.921875 -26.921875 "/></g></g></g><g fill="#545454" fill-opacity="1"><g transform="translate(184.377885, 239.265859)"><g><path d="M 15.578125 -43.90625 L 26.75 -43.90625 C 31.207031 -43.90625 34.40625 -42.96875 36.34375 -41.09375 C 38.28125 -39.21875 39.25 -36.519531 39.25 -33 L 39.25 -10.90625 C 39.25 -7.382812 38.28125 -4.6875 36.34375 -2.8125 C 34.40625 -0.9375 31.207031 0 26.75 0 L 15.578125 0 C 11.117188 0 7.921875 -0.9375 5.984375 -2.8125 C 4.046875 -4.6875 3.078125 -7.382812 3.078125 -10.90625 L 3.078125 -33 C 3.078125 -36.519531 4.046875 -39.21875 5.984375 -41.09375 C 7.921875 -42.96875 11.117188 -43.90625 15.578125 -43.90625 Z M 24.546875 -12.3125 L 24.546875 -31.59375 C 24.546875 -32.882812 23.816406 -33.53125 22.359375 -33.53125 L 19.96875 -33.53125 C 18.507812 -33.53125 17.78125 -32.882812 17.78125 -31.59375 L 17.78125 -12.3125 C 17.78125 -11.03125 18.507812 -10.390625 19.96875 -10.390625 L 22.359375 -10.390625 C 23.816406 -10.390625 24.546875 -11.03125 24.546875 -12.3125 Z M 24.546875 -12.3125 "/></g></g></g><g fill="#545454" fill-opacity="1"><g transform="translate(226.704015, 239.265859)"><g><path d="M 14.875 -43.90625 L 20.234375 -15.75 L 25.515625 -43.90625 L 40.390625 -43.90625 L 29.125 0 L 11.265625 0 L 0 -43.90625 Z M 14.875 -43.90625 "/></g></g></g><g fill="#545454" fill-opacity="1"><g transform="translate(267.09424, 239.265859)"><g><path d="M 15.578125 -43.90625 L 26.3125 -43.90625 C 34.9375 -43.90625 39.25 -40.269531 39.25 -33 L 39.25 -18.046875 L 16.8125 -18.046875 L 16.8125 -12.234375 C 16.8125 -10.941406 17.546875 -10.296875 19.015625 -10.296875 L 22.875 -10.296875 C 24.34375 -10.296875 25.078125 -11 25.078125 -12.40625 L 25.078125 -14.875 L 39.25 -14.875 L 39.25 -10.90625 C 39.25 -3.632812 34.9375 0 26.3125 0 L 15.578125 0 C 6.953125 0 2.640625 -3.632812 2.640625 -10.90625 L 2.640625 -33 C 2.640625 -40.269531 6.953125 -43.90625 15.578125 -43.90625 Z M 16.8125 -26.140625 L 25.078125 -26.140625 L 25.078125 -31.6875 C 25.078125 -32.96875 24.34375 -33.609375 22.875 -33.609375 L 19.015625 -33.609375 C 17.546875 -33.609375 16.8125 -32.96875 16.8125 -31.6875 Z M 16.8125 -26.140625 "/></g></g></g><g fill="#545454" fill-opacity="1"><g transform="translate(308.540412, 239.265859)"><g><path d="M 27.71875 -44.359375 L 29.046875 -44.359375 L 29.046875 -31.328125 L 24.03125 -31.328125 C 20.332031 -31.328125 18.484375 -29.332031 18.484375 -25.34375 L 18.484375 0 L 3.515625 0 L 3.515625 -43.90625 L 18.21875 -43.90625 L 18.21875 -37.140625 C 18.6875 -39.367188 19.738281 -41.128906 21.375 -42.421875 C 23.019531 -43.710938 25.132812 -44.359375 27.71875 -44.359375 Z M 27.71875 -44.359375 "/></g></g></g><g fill="#ed5b2d" fill-opacity="1"><g transform="translate(45.815219, 284.699977)"><g><path d="M 17.9375 -26.96875 L 17.9375 -21.71875 L 12.71875 -21.71875 L 12.71875 0 L 5.375 0 L 5.375 -21.71875 L 0.203125 -21.71875 L 0.203125 -26.96875 Z M 17.9375 -26.96875 "/></g></g></g><g fill="#ed5b2d" fill-opacity="1"><g transform="translate(66.059218, 284.699977)"><g><path d="M 9.03125 -5.25 L 18.234375 -5.25 L 18.234375 0 L 1.6875 0 L 1.6875 -26.96875 L 17.84375 -26.96875 L 17.84375 -21.71875 L 9.03125 -21.71875 L 9.03125 -16.21875 L 16.625 -16.21875 L 16.625 -10.96875 L 9.03125 -10.96875 Z M 9.03125 -5.25 "/></g></g></g><g fill="#ed5b2d" fill-opacity="1"><g transform="translate(87.017213, 284.699977)"><g><path d="M 12.015625 -6.171875 L 12.015625 -10 C 12.015625 -10.613281 11.664062 -10.921875 10.96875 -10.921875 L 6.9375 -10.921875 C 4.863281 -10.921875 3.398438 -11.375 2.546875 -12.28125 C 1.691406 -13.195312 1.265625 -14.507812 1.265625 -16.21875 L 1.265625 -21.75 C 1.265625 -25.226562 3.304688 -26.96875 7.390625 -26.96875 L 13.140625 -26.96875 C 17.234375 -26.96875 19.28125 -25.226562 19.28125 -21.75 L 19.28125 -18.515625 L 11.921875 -18.515625 L 11.921875 -20.796875 C 11.921875 -21.410156 11.570312 -21.71875 10.875 -21.71875 L 9.65625 -21.71875 C 8.957031 -21.71875 8.609375 -21.410156 8.609375 -20.796875 L 8.609375 -16.796875 C 8.609375 -16.179688 8.957031 -15.875 9.65625 -15.875 L 13.609375 -15.875 C 15.679688 -15.875 17.15625 -15.4375 18.03125 -14.5625 C 18.914062 -13.695312 19.359375 -12.425781 19.359375 -10.75 L 19.359375 -5.203125 C 19.359375 -1.734375 17.316406 0 13.234375 0 L 7.515625 0 C 3.398438 0 1.34375 -1.734375 1.34375 -5.203125 L 1.34375 -8.4375 L 8.6875 -8.4375 L 8.6875 -6.171875 C 8.6875 -5.554688 9.039062 -5.25 9.75 -5.25 L 10.96875 -5.25 C 11.664062 -5.25 12.015625 -5.554688 12.015625 -6.171875 Z M 12.015625 -6.171875 "/></g></g></g><g fill="#ed5b2d" fill-opacity="1"><g transform="translate(109.73921, 284.699977)"><g><path d="M 17.9375 -26.96875 L 17.9375 -21.71875 L 12.71875 -21.71875 L 12.71875 0 L 5.375 0 L 5.375 -21.71875 L 0.203125 -21.71875 L 0.203125 -26.96875 Z M 17.9375 -26.96875 "/></g></g></g><g fill="#ed5b2d" fill-opacity="1"><g transform="translate(129.983211, 284.699977)"><g/></g></g><g fill="#ed5b2d" fill-opacity="1"><g transform="translate(140.48321, 284.699977)"><g><path d="M 19.734375 -16.890625 L 12.390625 -16.890625 L 12.390625 -21.203125 C 12.390625 -21.828125 12.039062 -22.140625 11.34375 -22.140625 L 9.875 -22.140625 C 9.164062 -22.140625 8.8125 -21.828125 8.8125 -21.203125 L 8.8125 -5.75 C 8.8125 -5.132812 9.164062 -4.828125 9.875 -4.828125 L 11.34375 -4.828125 C 12.039062 -4.828125 12.390625 -5.132812 12.390625 -5.75 L 12.390625 -9.90625 L 19.734375 -9.90625 L 19.734375 -5.203125 C 19.734375 -1.734375 17.675781 0 13.5625 0 L 7.640625 0 C 3.523438 0 1.46875 -1.734375 1.46875 -5.203125 L 1.46875 -21.75 C 1.46875 -25.226562 3.523438 -26.96875 7.640625 -26.96875 L 13.5625 -26.96875 C 17.675781 -26.96875 19.734375 -25.226562 19.734375 -21.75 Z M 19.734375 -16.890625 "/></g></g></g><g fill="#ed5b2d" fill-opacity="1"><g transform="translate(163.373211, 284.699977)"><g><path d="M 7.734375 -26.96875 L 13.9375 -26.96875 C 18.0625 -26.96875 20.125 -25.226562 20.125 -21.75 L 20.125 -5.203125 C 20.125 -1.734375 18.0625 0 13.9375 0 L 7.734375 0 C 3.609375 0 1.546875 -1.734375 1.546875 -5.203125 L 1.546875 -21.75 C 1.546875 -25.226562 3.609375 -26.96875 7.734375 -26.96875 Z M 12.765625 -6.171875 L 12.765625 -20.796875 C 12.765625 -21.410156 12.414062 -21.71875 11.71875 -21.71875 L 9.953125 -21.71875 C 9.253906 -21.71875 8.90625 -21.410156 8.90625 -20.796875 L 8.90625 -6.171875 C 8.90625 -5.554688 9.253906 -5.25 9.953125 -5.25 L 11.71875 -5.25 C 12.414062 -5.25 12.765625 -5.554688 12.765625 -6.171875 Z M 12.765625 -6.171875 "/></g></g></g><g fill="#ed5b2d" fill-opacity="1"><g transform="translate(187.145208, 284.699977)"><g><path d="M 14.453125 -26.96875 L 22.09375 -26.96875 L 15.453125 0 L 6.9375 0 L 0.296875 -26.96875 L 7.9375 -26.96875 L 11.171875 -8.953125 Z M 14.453125 -26.96875 "/></g></g></g><g fill="#ed5b2d" fill-opacity="1"><g transform="translate(211.631203, 284.699977)"><g><path d="M 9.03125 -5.25 L 18.234375 -5.25 L 18.234375 0 L 1.6875 0 L 1.6875 -26.96875 L 17.84375 -26.96875 L 17.84375 -21.71875 L 9.03125 -21.71875 L 9.03125 -16.21875 L 16.625 -16.21875 L 16.625 -10.96875 L 9.03125 -10.96875 Z M 9.03125 -5.25 "/></g></g></g><g fill="#ed5b2d" fill-opacity="1"><g transform="translate(232.589201, 284.699977)"><g><path d="M 9.03125 -9.578125 L 9.03125 0 L 1.6875 0 L 1.6875 -26.96875 L 14.15625 -26.96875 C 18.269531 -26.96875 20.328125 -25.226562 20.328125 -21.75 L 20.328125 -14.78125 C 20.328125 -12.125 19.125 -10.488281 16.71875 -9.875 L 21.671875 0 L 13.78125 0 L 9.484375 -9.578125 Z M 11.921875 -21.71875 L 9.03125 -21.71875 L 9.03125 -14.578125 L 11.921875 -14.578125 C 12.628906 -14.578125 12.984375 -14.882812 12.984375 -15.5 L 12.984375 -20.796875 C 12.984375 -21.410156 12.628906 -21.71875 11.921875 -21.71875 Z M 11.921875 -21.71875 "/></g></g></g><g fill="#ed5b2d" fill-opacity="1"><g transform="translate(256.277199, 284.699977)"><g><path d="M 15.40625 0 L 14.578125 -4.03125 L 8.109375 -4.03125 L 7.21875 0 L 0 0 L 6.9375 -26.96875 L 15.875 -26.96875 L 22.8125 0 Z M 9.234375 -9.234375 L 13.4375 -9.234375 L 11.375 -18.9375 Z M 9.234375 -9.234375 "/></g></g></g><g fill="#ed5b2d" fill-opacity="1"><g transform="translate(281.18318, 284.699977)"><g><path d="M 19.78125 -17.71875 L 12.4375 -17.71875 L 12.4375 -21.203125 C 12.4375 -21.828125 12.082031 -22.140625 11.375 -22.140625 L 9.875 -22.140625 C 9.164062 -22.140625 8.8125 -21.828125 8.8125 -21.203125 L 8.8125 -5.75 C 8.8125 -5.132812 9.164062 -4.828125 9.875 -4.828125 L 11.375 -4.828125 C 12.082031 -4.828125 12.4375 -5.132812 12.4375 -5.75 L 12.4375 -10.25 L 10.328125 -10.25 L 10.328125 -14.90625 L 19.78125 -14.90625 L 19.78125 -5.203125 C 19.78125 -1.734375 17.722656 0 13.609375 0 L 7.640625 0 C 3.523438 0 1.46875 -1.734375 1.46875 -5.203125 L 1.46875 -21.75 C 1.46875 -25.226562 3.523438 -26.96875 7.640625 -26.96875 L 13.609375 -26.96875 C 17.722656 -26.96875 19.78125 -25.226562 19.78125 -21.75 Z M 19.78125 -17.71875 "/></g></g></g><g fill="#ed5b2d" fill-opacity="1"><g transform="translate(304.325169, 284.699977)"><g><path d="M 9.03125 -5.25 L 18.234375 -5.25 L 18.234375 0 L 1.6875 0 L 1.6875 -26.96875 L 17.84375 -26.96875 L 17.84375 -21.71875 L 9.03125 -21.71875 L 9.03125 -16.21875 L 16.625 -16.21875 L 16.625 -10.96875 L 9.03125 -10.96875 Z M 9.03125 -5.25 "/></g></g></g></svg>